<svg width="249" height="255" viewBox="0 0 249 255" fill="none" xmlns="http://www.w3.org/2000/svg">
<path d="M169 255C75.8157 255 0 179.184 0 86C0 -7.18435 75.8157 -83 169 -83V-80.8929C76.9775 -80.8929 2.12678 -6.02253 2.12678 85.9803C2.12678 178.003 76.9972 252.854 169 252.854C196.806 252.854 224.336 245.882 248.597 232.688L249.601 234.54C225.025 247.95 197.14 255 169 255Z" fill="#33484D" fill-opacity="0.21"/>
<path d="M89.0295 216.088C43.5007 188.046 16.3252 139.406 16.3252 86H20.559C20.559 137.929 46.9862 185.21 91.2547 212.484L89.0295 216.088Z" fill="#33484D" fill-opacity="0.21"/>
<path d="M169.001 238.695C152.262 238.695 135.819 235.997 120.104 230.7L121.463 226.702C136.745 231.861 152.735 234.48 169.02 234.48C245.486 234.48 308.994 177.195 316.694 101.222L320.908 101.655C312.952 179.755 247.652 238.695 169.001 238.695Z" fill="#33484D" fill-opacity="0.21"/>
<path d="M315.55 62.2904C310.017 27.8484 292.333 -3.71845 265.729 -26.5813C238.848 -49.7002 204.485 -62.4215 169 -62.4215C140.347 -62.4215 112.542 -54.2491 88.5759 -38.7709C60.6521 -20.7327 39.345 6.44279 28.5732 37.7537L24.5757 36.3752C35.6428 4.1782 57.5604 -23.7653 86.2719 -42.3155C110.927 -58.227 139.52 -66.6356 168.98 -66.6356C205.49 -66.6356 240.818 -53.5402 268.466 -29.7715C295.818 -6.25881 314.014 26.2139 319.705 61.6405L315.55 62.2904Z" fill="#33484D" fill-opacity="0.21"/>
<path d="M169 196.277C108.19 196.277 58.7227 146.81 58.7227 86C58.7227 61.3845 66.6587 38.1082 81.6446 18.6915L84.9923 21.2712C70.5775 39.9592 62.9565 62.3298 62.9565 86C62.9565 144.467 110.533 192.043 169 192.043C179.378 192.043 189.638 190.547 199.464 187.593L200.685 191.65C190.445 194.741 179.772 196.277 169 196.277Z" fill="#33484D" fill-opacity="0.21"/>
<path d="M243.477 167.329L240.621 164.218C262.499 144.171 275.043 115.676 275.043 86.0196C275.043 65.1457 268.978 44.9413 257.517 27.5923L261.042 25.2686C272.976 43.3069 279.277 64.3186 279.277 86.0393C279.258 116.858 266.221 146.495 243.477 167.329Z" fill="#33484D" fill-opacity="0.21"/>
<path d="M234.969 2.9769C216.045 -12.0878 193.221 -20.0435 169 -20.0435C147.752 -20.0435 127.252 -13.7813 109.706 -1.92648L107.343 -5.43172C125.578 -17.7591 146.905 -24.2576 169 -24.2576C194.206 -24.2576 217.935 -15.9868 237.608 -0.311689L234.969 2.9769Z" fill="#33484D" fill-opacity="0.21"/>
<path d="M169 177.333C154.152 177.333 139.402 173.69 126.366 166.798L127.35 164.927C140.091 171.662 154.486 175.226 168.98 175.226C209.015 175.226 244.382 148.307 254.996 109.749L257.025 110.32C246.194 149.784 209.98 177.333 169 177.333Z" fill="#33484D" fill-opacity="0.21"/>
<path d="M104.428 150.611C87.1779 133.36 77.6665 110.419 77.6665 86.0198C77.6665 35.6663 118.627 -5.31351 169 -5.31351C219.353 -5.31351 260.333 35.6663 260.333 86.0198H258.226C258.226 36.8282 218.211 -3.18676 169.019 -3.18676C119.828 -3.18676 79.813 36.8282 79.813 86.0198C79.813 109.848 89.0881 132.257 105.964 149.114L104.428 150.611Z" fill="#33484D" fill-opacity="0.21"/>
<path d="M169 142.812C137.669 142.812 112.188 117.331 112.188 86C112.188 54.6694 137.669 29.1874 169 29.1874V33.4213C140.013 33.4213 116.421 57.0128 116.421 86C116.421 114.987 140.013 138.579 169 138.579C197.987 138.579 221.579 114.987 221.579 86H225.813C225.793 117.331 200.311 142.812 169 142.812Z" fill="#33484D" fill-opacity="0.21"/>
<path d="M169 114.239C153.423 114.239 140.761 101.577 140.761 85.9999H142.868C142.868 100.395 154.585 112.112 168.98 112.112C183.376 112.112 195.092 100.395 195.092 85.9999C195.092 71.6048 183.376 59.8878 168.98 59.8878C160.985 59.8878 153.542 63.4718 148.54 69.734L146.886 68.4147C152.281 61.6405 160.335 57.7611 168.98 57.7611C184.557 57.7611 197.219 70.4233 197.219 85.9999C197.219 101.577 184.557 114.239 169 114.239Z" fill="#33484D" fill-opacity="0.21"/>
</svg>
