<svg width="306" height="202" viewBox="0 0 306 202" fill="none" xmlns="http://www.w3.org/2000/svg">
<path d="M282.948 111.504V114.534L148.104 192.169V189.139L282.948 111.504Z" fill="#414751"/>
<path d="M148.095 189.022V192.212L35.7244 127.102V124.709L148.095 189.022Z" fill="#31363D"/>
<path d="M282.948 111.504L148.104 189.139L35.6511 124.709L168.446 57.1343L282.948 111.504Z" fill="#575E6E"/>
<g opacity="0.3">
<path d="M241.604 106.791C244.256 108.272 247.18 112.649 249.832 114.197C251.736 115.275 254.728 116.352 256.36 117.901C257.244 118.776 257.176 119.517 256.632 120.325C256.02 121.267 255.204 122.008 254.252 122.614L219.232 143.218C216.852 144.632 213.928 144.699 211.48 143.555C207.672 141.737 202.504 138.707 200.192 137.36C199.104 136.754 198.628 135.407 199.036 134.263C199.036 134.195 199.104 134.128 199.104 134.061C199.716 132.849 200.872 132.108 201.756 131.165C202.912 129.953 204.272 129.011 205.428 127.799C206.516 126.654 208.08 126.048 209.372 125.24C212.364 123.557 215.288 121.873 218.28 120.123C223.788 116.958 229.228 113.861 234.736 110.696C237.048 109.417 239.36 108.07 241.604 106.791Z" fill="#575E6E"/>
<path d="M165.665 61.2671L258.604 105.309V105.377L142.12 172.441L49.844 119.719V119.651L165.665 61.2671ZM157.012 134.734L192.916 114.063V113.995L151.436 90.294L115.532 110.965V111.033L157.012 134.734Z" fill="#575E6E"/>
</g>
<path d="M214.608 116.015C214.2 115.746 213.044 115.073 212.636 115.611C212.228 116.15 212.568 117.429 213.044 117.766C213.588 118.103 214.744 117.833 215.084 117.093C215.356 116.487 215.016 116.285 214.608 116.015Z" fill="#B15F23"/>
<path d="M255.748 110.292C255.68 110.225 255.612 110.225 255.476 110.157L241.06 101.875C240.992 101.875 240.856 101.875 240.788 101.943C238.612 103.155 236.844 103.559 234.6 103.963C232.764 104.299 230.52 104.703 228.82 105.242C227.12 105.781 222.088 109.013 219.572 110.696C218.756 111.235 218.008 111.908 217.26 112.649C215.696 114.332 211.888 118.574 211.752 118.641C209.78 119.988 205.02 123.422 202.776 125.509C201.688 126.519 200.872 127.933 199.92 130.021C199.852 130.155 199.444 130.559 199.24 131.435C200.872 133.589 207.06 136.485 209.576 137.629C211.208 138.37 212.976 139.38 214.608 139.851C215.424 140.121 216.104 140.323 216.784 140.794C217.056 140.659 217.328 140.525 217.532 140.39C217.26 137.899 218.756 134.599 221.068 133.32C222.836 132.31 225.148 132.041 225.896 133.118C226.644 133.32 239.836 123.085 248.812 116.823C252.756 114.063 256.7 112.851 256.7 112.851C256.496 111.841 256.156 110.561 255.748 110.292ZM237.524 120.998C236.096 121.873 230.588 124.971 228.208 126.317C228.208 126.317 232.016 121.133 233.512 119.921C235.756 118.17 241.604 114.871 243.1 114.399L248.676 113.995C246.772 115.275 238.612 120.325 237.524 120.998Z" fill="#EBBF58"/>
<path d="M237.932 121.873C237.116 122.412 234.532 123.961 232.968 124.836C232.016 125.375 231.404 126.115 230.452 126.654C229.636 127.125 228.412 126.115 227.732 126.452C227.732 126.452 227.732 126.452 227.664 126.452C228.956 124.769 231.608 121.267 232.832 120.325C233.988 119.449 236.096 118.035 238.476 116.689C240.788 115.409 242.76 114.399 243.508 114.197C246.296 113.389 248.2 113.457 249.084 113.591C246.976 114.938 247.996 115.275 245.344 117.295C244.256 118.237 238.272 121.671 237.932 121.873Z" fill="#7ECDEB"/>
<path d="M217.6 135.811C217.6 135.811 215.832 139.515 217.668 140.929C222.972 136.754 227.596 135.542 227.596 135.542L227.936 134.465L226.1 130.492L217.6 135.811Z" fill="#191919"/>
<path d="M246.024 119.584C246.024 119.584 245.412 122.681 247.248 124.095C252.552 119.921 254.66 119.584 254.66 119.584L255.68 117.631L254.524 114.197L246.024 119.584Z" fill="#191919"/>
<path d="M225.42 126.856C225.42 126.856 213.792 123.22 212.16 118.978C212.908 118.103 213.588 117.025 218.212 112.312C218.212 112.312 223.72 118.103 231.608 119.853L225.42 126.856Z" fill="#7CC9E5"/>
<path opacity="0.4" d="M218.212 112.379C213.588 117.16 212.908 118.17 212.16 119.045C213.792 123.22 225.42 126.923 225.42 126.923L231.608 119.921C223.788 118.103 218.212 112.379 218.212 112.379ZM225.352 126.654C224.332 126.452 213.996 122.749 212.432 119.045C212.568 118.911 212.636 118.776 212.772 118.641C213.452 117.833 214.54 116.419 218.212 112.649C218.824 113.524 224.604 118.439 231.268 119.988L225.352 126.654Z" fill="#383738"/>
<path d="M236.64 104.097C236.64 104.097 244.936 108.339 249.356 111.369C247.248 111.369 244.052 111.841 244.052 111.841C244.052 111.841 233.104 105.511 232.016 104.973L236.64 104.097Z" fill="#7CC9E5"/>
<path opacity="0.3" d="M236.64 104.097L232.016 104.973C233.104 105.511 244.052 111.841 244.052 111.841C244.052 111.841 247.112 111.369 249.22 111.369C249.288 111.369 249.356 111.369 249.356 111.369C244.868 108.339 236.64 104.097 236.64 104.097ZM244.052 111.639C243.372 111.235 234.464 106.117 232.56 105.107L236.572 104.367C237.116 104.636 244.732 108.609 248.676 111.235C246.84 111.235 244.46 111.571 244.052 111.639Z" fill="#383738"/>
<path d="M224.196 134.195L222.632 133.32C222.088 132.983 221.34 133.051 220.524 133.522C218.892 134.465 217.6 136.687 217.6 138.505C217.6 139.447 217.94 140.053 218.484 140.39L220.048 141.333C220.592 141.535 221.136 141.535 222.088 141.063C223.72 140.121 225.08 137.966 225.08 136.148C225.08 135.138 224.74 134.465 224.196 134.195Z" fill="url(#paint0_linear_772_2224)"/>
<path d="M222.156 134.33C223.788 133.387 225.08 134.128 225.08 136.013C225.08 137.831 223.788 140.121 222.156 140.996C220.524 141.939 219.232 141.198 219.232 139.313C219.232 137.495 220.524 135.273 222.156 134.33Z" fill="#514F4D"/>
<path d="M222.156 135.003C223.448 134.263 224.536 134.869 224.536 136.35C224.536 137.831 223.448 139.649 222.156 140.39C220.864 141.131 219.776 140.525 219.776 139.043C219.776 137.562 220.864 135.744 222.156 135.003Z" fill="#333130"/>
<path d="M222.156 135.407C221.068 136.013 220.116 137.562 220.116 138.841C220.116 140.121 221 140.659 222.156 139.986C223.244 139.38 224.196 137.831 224.196 136.552C224.196 135.273 223.244 134.734 222.156 135.407Z" fill="#D1D4D5"/>
<path d="M222.156 137.091C222.428 136.956 222.7 137.091 222.7 137.427C222.7 137.764 222.496 138.168 222.156 138.303C221.884 138.437 221.612 138.303 221.612 138.033C221.612 137.629 221.884 137.225 222.156 137.091ZM222.156 138.101C222.36 137.966 222.564 137.697 222.496 137.427C222.496 137.158 222.36 137.091 222.088 137.225C221.884 137.36 221.68 137.629 221.748 137.899C221.816 138.101 221.952 138.235 222.156 138.101Z" fill="#262626"/>
<path d="M253.096 117.699L251.532 116.823C250.988 116.487 250.24 116.554 249.424 117.025C247.792 117.968 246.5 120.19 246.5 122.008C246.5 122.951 246.84 123.557 247.384 123.893L248.948 124.836C249.492 125.038 250.104 125.105 251.056 124.567C252.688 123.624 253.98 121.469 253.98 119.651C253.98 118.641 253.64 118.035 253.096 117.699Z" fill="url(#paint1_linear_772_2224)"/>
<path d="M251.056 117.901C252.688 116.958 253.98 117.699 253.98 119.584C253.98 121.402 252.688 123.691 251.056 124.567C249.424 125.509 248.132 124.769 248.132 122.883C248.132 121.065 249.424 118.843 251.056 117.901Z" fill="#514F4D"/>
<path d="M251.056 118.507C252.348 117.766 253.436 118.372 253.436 119.853C253.436 121.335 252.348 123.153 251.056 123.893C249.764 124.634 248.676 124.028 248.676 122.547C248.676 121.065 249.764 119.247 251.056 118.507Z" fill="#333130"/>
<path d="M251.056 118.911C249.968 119.517 249.016 121.065 249.016 122.345C249.016 123.624 249.9 124.163 251.056 123.489C252.144 122.883 253.096 121.335 253.096 120.055C253.096 118.776 252.144 118.305 251.056 118.911Z" fill="#D1D4D5"/>
<path d="M251.056 120.594C251.328 120.459 251.6 120.594 251.6 120.931C251.6 121.267 251.396 121.671 251.056 121.806C250.784 121.941 250.512 121.806 250.512 121.537C250.512 121.2 250.784 120.796 251.056 120.594ZM251.056 121.671C251.26 121.537 251.464 121.267 251.396 120.998C251.396 120.729 251.26 120.661 250.988 120.796C250.784 120.931 250.58 121.2 250.648 121.469C250.716 121.671 250.852 121.806 251.056 121.671Z" fill="#262626"/>
<path d="M257.38 113.726C257.312 113.524 257.244 113.389 257.108 113.322L256.7 112.985C256.36 111.639 256.02 109.955 255.34 110.359C253.164 111.571 251.396 111.975 249.152 112.379C247.316 112.716 245.072 113.12 243.372 113.659C241.672 114.197 236.64 117.429 234.124 119.113C233.308 119.651 232.56 120.325 231.812 121.065C230.86 122.075 229.16 123.961 227.868 125.375C226.916 126.452 225.828 127.395 224.604 128.27C222.292 129.886 219.028 132.377 217.26 133.993C216.172 135.003 215.152 136.754 214.336 138.976C214.336 139.111 213.86 138.976 213.724 139.649C213.996 139.717 214.268 139.851 214.472 139.919C215.492 140.188 216.24 140.525 217.056 141.198C217.328 141.063 217.464 140.996 217.464 140.996C216.92 138.505 218.756 135.205 221.272 133.791C222.7 132.983 223.992 133.185 224.876 133.657C225.896 134.195 226.1 135.677 226.236 136.148C226.236 136.215 226.304 136.215 226.372 136.215C229.84 134.195 237.524 129.549 237.932 129.347C238.34 129.145 246.296 124.634 247.044 124.23C247.112 124.23 247.112 124.163 247.112 124.095C246.636 121.402 248.064 118.641 249.968 117.497C252.416 116.015 254.388 116.823 254.388 119.315C254.388 119.449 254.388 119.584 254.388 119.719L254.728 119.517C255.544 118.911 256.496 118.237 257.176 117.295C258.128 116.217 257.584 114.399 257.38 113.726ZM237.524 120.998C236.096 121.873 230.588 124.971 228.208 126.317C228.208 126.317 232.016 121.133 233.512 119.921C235.756 118.17 241.604 114.871 243.1 114.399C246.772 113.389 248.676 113.995 248.676 113.995C246.772 115.275 238.612 120.325 237.524 120.998Z" fill="url(#paint2_linear_772_2224)"/>
<path opacity="0.5" d="M255.34 110.292C253.164 111.504 251.396 111.571 249.152 111.975C247.316 112.312 245.072 112.716 243.372 113.322C241.672 113.861 237.184 116.419 234.396 118.372C233.58 118.911 232.424 119.853 231.676 120.661C230.384 122.008 226.78 125.913 225.624 127.193C225.284 127.529 219.912 130.829 217.192 133.724C216.308 134.667 215.56 136.417 214.744 138.235C215.9 138.235 216.308 137.966 217.872 136.754C218.076 136.485 219.028 135.003 220.864 133.724C223.04 132.243 224.4 132.243 225.284 132.512C226.032 132.714 226.304 130.627 227.12 129.886C227.868 129.145 246.024 119.921 246.432 120.392C246.432 120.392 246.296 120.863 246.296 120.931C248.132 118.103 249.696 116.891 251.26 116.285C251.6 116.15 252.144 116.083 252.144 116.083C253.028 115.611 255 114.265 255.136 114.13C255.68 113.659 256.224 113.12 256.7 112.649C256.36 111.302 255.952 109.955 255.34 110.292ZM237.524 120.998C236.096 121.873 230.588 124.971 228.208 126.317C228.208 126.317 232.016 121.133 233.512 119.921C235.756 118.17 241.604 114.871 243.1 114.399C246.772 113.389 248.676 113.995 248.676 113.995C246.772 115.275 238.612 120.325 237.524 120.998Z" fill="#FFC284"/>
<path opacity="0.7" d="M248.676 114.063C248.608 114.063 248.608 114.13 248.54 114.13C249.084 114.197 249.152 114.736 249.22 114.938C249.288 115.813 248.812 117.025 247.996 118.035C246.772 119.517 245.888 121.469 245.276 122.749C245.004 123.355 244.732 123.961 244.596 124.028L237.932 127.933C237.932 127.664 237.932 127.193 237.864 126.587C237.796 124.836 237.66 121.537 237.728 121.335C237.796 121.133 237.932 120.796 237.932 120.594C237.864 120.594 237.864 120.661 237.796 120.661C237.728 120.863 237.66 121.133 237.592 121.335C237.524 121.537 237.66 123.961 237.728 126.587C237.728 127.125 237.796 127.597 237.796 127.933C237.796 127.933 229.636 132.647 228.412 133.253C228.344 133.32 228.276 133.253 228.276 133.185C228.276 132.512 228.004 131.367 227.8 130.223C227.596 129.078 227.256 127.731 227.392 127.529C227.664 126.991 228.14 126.317 228.276 126.115C228.208 126.115 228.208 126.183 228.14 126.183C227.868 126.519 227.324 127.327 227.256 127.529C227.188 127.799 227.324 128.741 227.664 130.29C227.8 130.896 227.868 131.435 228.004 132.041C228.072 132.31 228.072 132.512 228.14 132.781C228.14 132.916 228.14 132.983 228.14 133.118C228.14 133.185 228.14 133.387 228.208 133.455C228.344 133.455 230.384 132.243 230.996 131.973C232.288 131.233 233.58 130.492 234.804 129.751C235.552 129.28 236.3 128.876 237.116 128.405C241.06 126.115 244.528 124.028 244.528 124.028C244.664 123.893 244.868 123.489 245.276 122.614C245.888 121.335 246.772 119.382 247.928 117.901C248.812 116.891 249.288 115.611 249.152 114.736C249.22 114.736 249.152 114.197 248.676 114.063Z" fill="#7C310D"/>
<path d="M244.8 114.13L244.664 114.197L244.528 114.265C244.528 114.332 244.324 115.275 244.392 116.689L244.732 116.487C244.596 115.073 244.8 114.13 244.8 114.13Z" fill="#383738"/>
<path d="M237.184 117.497C237.184 117.497 236.912 120.123 236.98 121.2C237.048 121.267 238.68 120.19 238.68 120.19L238.34 116.891L237.184 117.497Z" fill="#383738"/>
<path d="M237.796 120.796C237.864 120.796 237.864 120.729 237.932 120.729L237.796 117.362C237.728 117.362 237.728 117.429 237.66 117.429L237.796 120.796Z" fill="#181619"/>
<path d="M243.032 114.467C242.284 114.669 240.448 115.611 238.544 116.689C236.64 117.766 234.6 119.045 233.512 119.921C232.016 121.133 228.208 126.317 228.208 126.317C228.48 126.183 228.752 125.981 229.024 125.846C230.248 125.105 231.948 124.163 233.512 123.287C235.28 122.277 236.844 121.402 237.524 120.998C238.612 120.325 246.84 115.275 248.676 114.063C248.676 114.063 246.704 113.389 243.032 114.467ZM237.524 120.729C236.776 121.2 234.872 122.277 233.512 123.018C232.696 123.489 231.812 123.961 231.064 124.432C230.316 124.836 229.636 125.24 229.092 125.577C229.092 125.577 229.092 125.577 229.024 125.577C230.18 124.095 232.56 120.998 233.58 120.19C234.6 119.382 236.436 118.17 238.612 116.958C240.652 115.813 242.352 114.938 243.032 114.736C245.48 114.063 247.18 114.13 247.996 114.197C245.276 115.948 238.408 120.19 237.524 120.729Z" fill="#383738"/>
<path opacity="0.7" d="M225.216 132.445C225.148 132.445 225.148 132.377 225.08 132.31C225.012 132.243 224.876 132.243 224.808 132.175C224.672 132.108 224.536 132.108 224.4 132.108C224.264 132.108 224.06 132.108 223.856 132.108C223.652 132.108 223.448 132.175 223.176 132.243C222.904 132.31 222.7 132.377 222.428 132.512C222.292 132.579 222.156 132.647 222.02 132.714C221.884 132.781 221.748 132.849 221.612 132.916C221.476 132.983 221.34 133.118 221.204 133.185L221 133.32L220.932 133.387H220.864L220.796 133.455C220.524 133.657 220.252 133.859 220.048 134.061C219.776 134.263 219.572 134.465 219.368 134.734C219.232 134.869 219.164 134.936 219.096 135.071C219.028 135.205 218.892 135.273 218.824 135.407C218.484 135.811 218.28 136.215 218.144 136.417C218.076 136.552 218.008 136.619 218.008 136.687C217.94 136.754 217.94 136.821 217.94 136.821C217.94 136.821 217.94 136.821 218.008 136.754C218.076 136.687 218.144 136.619 218.212 136.485C218.416 136.283 218.62 135.946 218.96 135.542C219.096 135.34 219.3 135.138 219.504 135.003C219.572 134.936 219.708 134.801 219.844 134.734C219.98 134.667 220.048 134.532 220.184 134.465C220.388 134.263 220.66 134.128 220.932 133.926C221.204 133.791 221.408 133.589 221.68 133.455C221.816 133.387 221.952 133.32 222.088 133.253C222.224 133.185 222.36 133.118 222.428 133.051C222.564 132.983 222.7 132.916 222.768 132.916C222.904 132.849 222.972 132.849 223.108 132.781C223.244 132.714 223.312 132.714 223.448 132.714C223.516 132.714 223.584 132.714 223.584 132.647C223.652 132.647 223.72 132.647 223.72 132.647C223.924 132.579 224.128 132.579 224.264 132.579C224.604 132.579 224.876 132.579 225.012 132.647C225.08 132.647 225.148 132.714 225.216 132.714C225.284 132.714 225.284 132.714 225.284 132.714L225.216 132.445C225.284 132.445 225.284 132.445 225.216 132.445Z" fill="#FFC284"/>
<path d="M236.368 123.961L235.552 124.432C235.348 124.567 235.212 124.499 235.212 124.297V123.961C235.212 123.759 235.348 123.557 235.552 123.422L236.436 122.883C236.64 122.749 236.776 122.816 236.776 123.018V123.355C236.708 123.624 236.572 123.826 236.368 123.961Z" fill="#9B4513"/>
<path opacity="0.7" d="M235.212 124.23C235.212 124.028 235.348 123.826 235.552 123.691L236.436 123.153C236.572 123.085 236.708 123.085 236.776 123.153V123.085C236.776 122.883 236.64 122.816 236.436 122.951L235.552 123.489C235.348 123.624 235.212 123.826 235.212 124.028V124.365C235.212 124.432 235.212 124.432 235.212 124.499V124.23Z" fill="#7C310D"/>
<path opacity="0.7" d="M237.116 122.951C237.116 123.018 236.98 123.22 236.708 123.422C236.708 123.691 236.368 123.826 235.892 124.095C235.62 124.297 235.212 124.499 235.144 124.365C234.872 124.499 234.736 124.499 234.668 124.432C234.668 124.297 235.212 123.826 235.824 123.422C236.572 123.018 237.116 122.816 237.116 122.951Z" fill="#7C310D"/>
<path d="M237.116 122.951C237.116 123.085 236.572 123.489 235.96 123.893C235.28 124.297 234.736 124.499 234.736 124.365C234.736 124.23 235.28 123.826 235.892 123.422C236.572 123.018 237.116 122.816 237.116 122.951Z" fill="#EBBF58"/>
<path opacity="0.7" d="M234.804 124.432C234.94 124.23 235.348 123.893 235.96 123.557C236.504 123.22 236.98 123.018 237.116 123.018V122.951C237.116 122.816 236.572 123.018 235.96 123.422C235.28 123.826 234.804 124.23 234.804 124.432Z" fill="#FFC284"/>
<path d="M247.112 117.833L246.296 118.305C246.092 118.439 245.956 118.372 245.956 118.17V117.833C245.956 117.631 246.092 117.429 246.296 117.295L247.18 116.756C247.384 116.621 247.52 116.689 247.52 116.891V117.227C247.452 117.497 247.316 117.766 247.112 117.833Z" fill="#9B4513"/>
<path opacity="0.7" d="M245.956 118.103C245.956 117.901 246.092 117.699 246.296 117.564L247.18 117.025C247.316 116.958 247.452 116.958 247.52 117.025V116.958C247.52 116.756 247.384 116.689 247.18 116.823L246.296 117.362C246.092 117.497 245.956 117.699 245.956 117.901V118.237C245.956 118.305 245.956 118.305 245.956 118.372V118.103Z" fill="#7C310D"/>
<path opacity="0.7" d="M247.86 116.823C247.86 116.891 247.724 117.093 247.452 117.295C247.452 117.564 247.112 117.699 246.636 117.968C246.364 118.17 245.956 118.372 245.888 118.237C245.616 118.372 245.48 118.372 245.412 118.305C245.412 118.17 245.956 117.699 246.568 117.295C247.316 116.891 247.86 116.689 247.86 116.823Z" fill="#7C310D"/>
<path d="M247.86 116.823C247.86 116.958 247.316 117.362 246.704 117.766C246.024 118.17 245.48 118.372 245.48 118.237C245.48 118.103 246.024 117.699 246.636 117.295C247.316 116.891 247.86 116.689 247.86 116.823Z" fill="#EBBF58"/>
<path opacity="0.7" d="M245.548 118.305C245.684 118.103 246.092 117.766 246.704 117.429C247.248 117.093 247.724 116.891 247.86 116.891V116.823C247.86 116.689 247.316 116.891 246.704 117.295C246.024 117.699 245.48 118.103 245.548 118.305C245.48 118.305 245.48 118.237 245.548 118.305Z" fill="#FFC284"/>
<path d="M202.844 131.973C202.708 131.367 202.776 129.213 202.98 129.28C204 130.155 205.632 131.3 207.536 132.377C209.168 133.32 211.004 134.128 212.704 134.734C212.704 134.734 211.208 136.148 210.868 136.283C210.12 136.754 202.98 132.445 202.844 131.973Z" fill="#383738"/>
<path opacity="0.5" d="M217.668 133.791C219.776 131.839 224.06 128.539 225.964 127.26C220.456 126.452 212.772 122.277 211.616 118.978C209.712 120.257 202.64 125.442 202.028 126.721C201.892 126.923 208.012 133.387 216.716 134.734C216.988 134.465 217.464 133.993 217.668 133.791Z" fill="#FFC284"/>
<path d="M218.144 138.033C218.076 137.899 217.94 137.899 217.872 137.966C217.192 138.37 216.308 138.774 215.288 138.841C212.908 139.111 204.476 134.195 203.116 133.32C201.076 132.041 199.852 131.771 199.92 130.021C199.92 129.953 199.92 129.886 199.988 129.886C199.92 129.953 199.444 130.357 199.104 130.896C198.832 131.3 198.9 133.051 199.512 133.724C200.124 134.397 209.236 140.323 214.064 141.467C216.036 141.939 217.668 140.861 217.668 140.861C218.348 140.457 218.416 138.639 218.144 138.033Z" fill="#383738"/>
<path opacity="0.5" d="M214.54 134.734C213.86 134.734 213.384 134.869 213.112 135.071C212.772 135.475 212.364 135.879 212.024 136.148C211.888 136.215 211.548 136.552 211.616 136.889C211.616 136.956 211.684 137.158 211.956 137.225C212.568 137.427 213.996 137.831 214.88 137.831C215.016 137.831 215.152 137.831 215.22 137.831C216.24 137.629 217.872 136.754 218.076 135.609C218.076 135.542 218.076 135.475 218.008 135.407C217.668 135.205 215.832 134.734 214.54 134.734Z" fill="#7C4F31"/>
<path d="M213.248 135.205C212.84 135.744 212.432 136.081 212.16 136.283C211.82 136.552 211.616 136.889 212.024 137.023C212.84 137.293 214.472 137.764 215.22 137.629C216.172 137.495 217.736 136.619 217.872 135.542C217.804 135.407 214.2 134.465 213.248 135.205Z" fill="#D4E0E8"/>
<path d="M255.952 110.561C255.884 110.561 255.884 110.629 255.816 110.696C255.612 110.898 255.408 111.033 255.272 111.235C255 111.504 255 111.639 255.204 111.975C255.408 112.177 255.816 112.581 256.088 112.379C256.292 112.245 256.496 112.043 256.496 112.043C256.7 111.841 256.292 110.561 256.156 110.494C256.088 110.494 256.02 110.494 255.952 110.561Z" fill="#BF0C0C"/>
<path opacity="0.5" d="M255.544 110.157C255.476 110.157 255.476 110.157 255.544 110.157L241.196 101.943C240.448 102.347 238.544 103.289 236.844 103.761C236.844 103.761 248.744 109.686 250.58 111.975C252.96 111.571 254.728 110.965 255.544 110.157Z" fill="#FFC284"/>
<path opacity="0.5" d="M218.824 111.706C218.824 111.706 224.264 117.833 232.152 119.113C232.152 119.113 238.68 114.601 244.12 112.649L230.724 104.973C230.724 104.973 229.296 105.175 227.8 105.915C226.44 106.589 220.524 110.225 218.824 111.706Z" fill="#FFC284"/>
<path opacity="0.7" d="M218.144 138.033C218.076 137.899 217.94 137.899 217.872 137.966C217.192 138.37 216.308 138.774 215.288 138.841C212.908 139.111 204.476 134.195 203.116 133.32C201.076 132.041 199.852 131.771 199.92 130.021C199.92 129.953 199.92 129.886 199.988 129.886C199.988 129.953 199.648 130.223 199.376 130.559C199.172 130.761 199.172 131.098 199.376 131.3C199.852 131.906 204.34 134.869 208.216 136.956C209.712 137.764 211.684 138.909 214.132 139.447C216.104 139.784 218.416 138.639 218.144 138.033Z" fill="#565656"/>
<path opacity="0.5" d="M201.688 131.233C201.892 131.367 202.096 131.3 202.164 131.233C202.436 131.031 202.436 130.492 202.436 130.357C202.436 129.886 202.436 129.415 202.504 128.876C202.504 128.539 202.3 128.203 201.96 127.799C201.824 127.597 201.62 127.395 201.348 127.26C200.872 128.001 200.396 128.876 199.92 129.886C200.532 130.425 201.28 130.963 201.688 131.233Z" fill="#7C4F31"/>
<path d="M200.124 129.617C200.124 129.684 200.124 129.751 200.192 129.819C200.6 130.223 201.348 130.829 201.824 131.098C202.164 131.3 202.3 130.829 202.3 130.425C202.3 130.021 202.3 129.549 202.436 128.943C202.436 128.472 201.892 127.933 201.348 127.462C201.28 127.395 200.6 127.125 200.124 129.617Z" fill="#D4E0E8"/>
<g opacity="0.2">
<path d="M214.54 136.485C214.54 136.821 214.268 136.956 213.928 136.754C213.588 136.552 213.316 136.081 213.316 135.744C213.316 135.407 213.588 135.273 213.928 135.475C214.268 135.744 214.54 136.148 214.54 136.485Z" fill="#383738"/>
<path d="M202.028 129.347C202.028 129.684 201.756 129.819 201.416 129.617C201.076 129.415 200.804 128.943 200.804 128.607C200.804 128.27 201.076 128.135 201.416 128.337C201.756 128.539 202.028 129.011 202.028 129.347Z" fill="#383738"/>
<path d="M215.9 136.417C215.9 136.754 215.628 136.821 215.288 136.687C214.948 136.485 214.676 136.081 214.676 135.744C214.676 135.407 214.948 135.34 215.288 135.475C215.628 135.677 215.9 136.081 215.9 136.417Z" fill="#383738"/>
</g>
<path d="M207.468 133.522C208.964 134.33 210.46 135.071 211.82 135.542C211.752 135.609 211.684 135.677 211.616 135.677C210.256 135.138 208.828 134.465 207.332 133.657C205.632 132.714 204 131.704 202.776 130.694C202.776 130.627 202.776 130.492 202.776 130.425C204 131.502 205.7 132.579 207.468 133.522ZM210.936 136.35C211.004 136.35 211.072 136.283 211.14 136.215C209.984 135.744 208.76 135.138 207.468 134.465C205.7 133.522 204.068 132.445 202.776 131.435C202.776 131.569 202.776 131.637 202.776 131.771C204 132.714 205.632 133.724 207.332 134.667C208.556 135.273 209.78 135.879 210.936 136.35ZM212.5 134.936C210.936 134.397 209.236 133.589 207.468 132.647C205.768 131.704 204.136 130.627 202.844 129.684C202.844 129.751 202.844 129.819 202.776 129.953C204 130.896 205.632 131.973 207.264 132.849C209.032 133.791 210.664 134.599 212.228 135.138C212.364 135.071 212.432 135.003 212.5 134.936Z" fill="#7F7F7F"/>
<path d="M257.788 113.726C257.72 113.524 257.72 113.457 257.584 113.322L256.768 112.918C257.04 113.255 257.244 113.928 256.836 114.265C255.476 115.477 253.368 116.823 253.368 116.823L253.844 117.093C254.456 118.103 254.524 119.045 254.592 119.584C254.592 119.584 254.592 119.651 254.66 119.584C255.884 118.911 256.836 118.035 257.448 117.16C258.128 116.285 257.992 114.399 257.788 113.726Z" fill="#383738"/>
<path opacity="0.7" d="M257.788 113.726C257.72 113.524 257.652 113.457 257.584 113.322L256.768 112.918C257.04 113.255 257.244 113.928 256.836 114.265C255.476 115.477 253.368 116.823 253.368 116.823L253.844 117.093C254.728 116.554 255.408 116.083 255.952 115.679C257.38 114.669 257.72 114.063 257.788 113.726Z" fill="#565656"/>
<path d="M229.568 124.701C228.956 124.769 228.14 125.846 228.276 126.452C228.412 127.125 229.772 127.058 230.248 126.923C230.792 126.789 231.472 126.452 231.54 125.846C231.54 125.442 230.248 124.634 229.568 124.701Z" fill="url(#paint3_linear_772_2224)"/>
<path opacity="0.9" d="M229.568 124.701C228.956 124.769 228.14 125.846 228.276 126.452C228.412 127.125 229.772 127.058 230.248 126.923C230.792 126.789 231.472 126.452 231.54 125.846C231.54 125.442 230.248 124.634 229.568 124.701Z" fill="#FFC284"/>
<path d="M177.269 74.3361V75.5481L91.3855 125.038V123.826L177.269 74.3361Z" fill="#A58641"/>
<path d="M91.3856 123.826V125.038L81.7976 119.517V118.305L91.3856 123.826Z" fill="#7F6532"/>
<path d="M177.27 74.3361L91.3856 123.826L81.7976 118.305L167.682 68.8821L177.27 74.3361Z" fill="#DDCA9B"/>
<path opacity="0.3" d="M177.27 74.3361L91.3856 123.826L81.7976 118.305L167.682 68.8821L177.27 74.3361Z" fill="#BA9E59"/>
<path d="M168.769 46.1908C168.769 44.7768 168.225 43.7668 167.409 43.2281L162.785 40.5348C163.601 41.0061 164.145 42.0161 164.145 43.4975L164.281 73.3935L168.905 76.0868L168.769 46.1908Z" fill="#BA9E59"/>
<path d="M150.953 86.3214L146.329 83.6281L146.125 27.6741L150.749 30.3674L150.953 86.3214Z" fill="#BA9E59"/>
<path d="M150.749 30.3674L146.125 27.674L168.089 15.15L172.713 17.776L150.749 30.3674Z" fill="#71787A"/>
<path d="M164.282 73.3933L168.906 76.0866L168.769 47.9413L164.146 45.3153L164.282 73.3933Z" fill="#3D655D"/>
<path d="M154.625 59.994C154.625 58.8493 155.509 57.4353 156.665 56.8293L161.221 54.2033C161.833 53.8667 162.377 53.7993 162.785 54.0687C163.057 54.2033 165.573 55.6173 166.321 56.0887C166.457 56.156 166.457 56.2907 166.389 56.4253L163.261 75.346L158.161 78.2413V82.2813L154.625 80.2613V59.994Z" fill="#3D655D"/>
<path opacity="0.5" d="M154.625 59.994C154.625 58.8493 155.509 57.4353 156.665 56.8293L161.221 54.2033C161.833 53.8667 162.377 53.7993 162.785 54.0687C163.057 54.2033 165.573 55.6173 166.321 56.0887C166.457 56.156 166.457 56.2907 166.389 56.4253L165.777 59.388L159.657 62.8893L154.625 59.994Z" fill="#7DCFEF"/>
<path opacity="0.6" d="M166.389 56.358L159.521 60.2634L155.441 57.9067C155.781 57.4354 156.189 57.0314 156.665 56.8294L161.221 54.2034C161.561 54.0014 161.901 53.8667 162.241 53.8667L166.389 56.358C166.389 56.2907 166.389 56.2907 166.389 56.358Z" fill="#7DCFEF"/>
<path opacity="0.5" d="M160.269 58.8494L156.733 56.8294L161.221 54.2708L164.757 56.2908L160.269 58.8494Z" fill="#7DCFEF"/>
<path d="M158.229 82.214L166.866 77.2987V57.0987C166.866 55.954 165.982 55.6173 164.826 56.2233L160.269 58.8493C159.113 59.5227 158.229 60.9367 158.229 62.014V82.214Z" fill="#769353"/>
<path opacity="0.6" d="M166.118 62.418V57.7047L159.114 61.6774V66.3907L166.118 62.418Z" fill="#0D57BC"/>
<path d="M159.317 66.1213L165.981 62.2833V57.974L159.317 61.812V66.1213Z" fill="#DCE0E2"/>
<path d="M160.269 64.64L164.961 61.9467C165.029 61.8794 165.165 61.7447 165.165 61.6774V59.5227C165.165 59.4554 165.097 59.388 164.961 59.4554L160.269 62.1487C160.201 62.216 160.065 62.3507 160.065 62.418V64.5727C160.133 64.64 160.201 64.7074 160.269 64.64Z" fill="#979FA5"/>
<path opacity="0.6" d="M165.505 58.7147L159.317 62.2833V61.812L165.981 57.974V62.2833L165.505 62.5527V58.7147Z" fill="#979FA5"/>
<path opacity="0.6" d="M165.709 58.3107L159.317 62.014V61.812L165.981 57.974V62.2833L165.709 62.418V58.3107Z" fill="#979FA5"/>
<path opacity="0.6" d="M165.029 61.8794V59.7247C165.029 59.6574 164.961 59.59 164.825 59.6574L160.133 62.3507C160.133 62.3507 160.065 62.3507 160.065 62.418C160.065 62.3507 160.133 62.216 160.269 62.1487L164.961 59.4554C165.029 59.388 165.165 59.4554 165.165 59.5227V61.6774C165.165 61.7447 165.165 61.812 165.029 61.8794Z" fill="#979FA5"/>
<path d="M166.797 71.0366V71.6426C167.069 72.0466 167.205 72.4506 167.205 72.8546C167.205 73.124 167.137 73.4606 166.729 73.528C166.457 73.5953 166.253 73.326 166.117 72.922C165.981 72.5853 165.913 71.7773 165.913 70.7673V70.3633C165.913 69.6226 165.913 68.882 165.981 68.074C165.981 66.7946 166.049 65.5153 165.981 64.5726H165.573C165.641 65.5153 165.573 66.7946 165.573 68.074C165.505 70.296 165.437 72.316 165.709 73.0566C165.913 73.5953 166.253 73.8646 166.661 73.8646C166.729 73.8646 166.729 73.8646 166.797 73.8646C167.341 73.7973 167.613 73.3933 167.613 72.7873C167.613 72.2486 167.273 71.508 166.797 71.0366Z" fill="#222930"/>
<path d="M166.797 72.922C166.661 72.518 166.321 72.2487 165.845 72.1813L165.777 72.5853C166.049 72.5853 166.321 72.72 166.457 73.0567C166.525 73.1913 166.457 73.326 166.389 73.528C166.253 73.7973 165.913 73.9993 165.709 74.0667C165.437 74.134 165.233 74.0667 165.097 73.932C164.485 73.3933 164.621 71.4407 164.757 69.7573C164.825 68.5453 164.961 67.468 164.825 66.66C164.825 66.458 164.757 66.3233 164.757 66.1213C164.757 65.9193 164.689 65.7173 164.689 65.448L164.281 65.5153C164.349 65.7173 164.349 65.9193 164.349 66.1213C164.349 66.3233 164.417 66.458 164.417 66.66C164.553 67.4007 164.485 68.478 164.349 69.6227C164.213 71.6427 164.077 73.4607 164.825 74.134C165.029 74.2687 165.233 74.336 165.437 74.336C165.505 74.336 165.641 74.336 165.777 74.2687C166.049 74.2013 166.457 73.932 166.661 73.5953C166.865 73.4607 166.865 73.1913 166.797 72.922Z" fill="#222930"/>
<path d="M163.737 64.3706C163.737 64.3033 163.737 64.3033 163.737 64.3033L164.009 62.6199L163.873 62.5526L163.601 64.2359C163.601 64.3033 163.601 64.3706 163.601 64.4379C163.669 64.5053 163.737 64.5726 163.805 64.5726L164.417 64.9093V64.7746C164.417 64.7073 163.737 64.3706 163.737 64.3706Z" fill="#ADC5C9"/>
<path d="M164.281 63.5626C164.281 63.4952 164.213 63.3606 164.145 63.2932C164.145 63.2932 164.077 63.1586 164.009 63.1586C164.009 63.1586 164.077 63.7646 163.805 64.1012C163.805 64.1012 163.805 64.1686 163.873 64.1686C164.077 64.1012 164.281 63.8992 164.349 63.7646C164.349 63.7646 164.349 63.6972 164.281 63.5626Z" fill="#BA1915"/>
<path d="M163.193 60.802L164.213 63.832C164.213 63.8993 164.213 63.8993 164.213 63.9666V65.852C164.213 65.9193 164.281 65.9866 164.349 65.9193L164.689 65.65C164.757 65.65 164.757 65.5826 164.757 65.5153V64.1013C164.757 63.9666 164.757 63.8993 164.689 63.7646L163.397 60.6673C163.329 60.6 163.125 60.6673 163.193 60.802Z" fill="#33484D"/>
<path d="M163.329 60.6672C163.261 60.6672 163.261 60.6672 163.329 60.6672L164.553 63.9666V64.0339V65.7172L164.689 65.6499V64.0339C164.689 63.9666 164.689 63.9666 164.689 63.8992L163.329 60.6672Z" fill="#33484D"/>
<path d="M164.961 63.6973C164.961 63.6299 164.961 63.6299 164.961 63.6299L165.233 61.9466L165.097 61.8793L164.825 63.5626C164.825 63.6299 164.825 63.6973 164.825 63.7646C164.893 63.8319 164.961 63.8993 165.029 63.8993L165.641 64.2359V64.1013C165.641 64.1013 164.961 63.7646 164.961 63.6973Z" fill="#ADC5C9"/>
<path d="M165.573 62.9566C165.573 62.8893 165.505 62.7546 165.437 62.6873C165.437 62.6873 165.369 62.5526 165.301 62.5526C165.301 62.5526 165.369 63.1586 165.097 63.4953C165.097 63.4953 165.097 63.5626 165.165 63.5626C165.369 63.4953 165.573 63.2933 165.641 63.1586C165.641 63.1586 165.573 63.0913 165.573 62.9566Z" fill="#BA1915"/>
<path d="M164.485 60.196L165.505 63.226C165.505 63.2933 165.505 63.2933 165.505 63.3607V65.246C165.505 65.3133 165.573 65.3807 165.641 65.3133L165.981 65.044C166.049 65.044 166.049 64.9767 166.049 64.9093V63.4953C166.049 63.3607 166.049 63.2933 165.981 63.1587L164.689 60.0613C164.621 59.994 164.417 60.0613 164.485 60.196Z" fill="#33484D"/>
<path d="M164.553 60.0613L165.777 63.3606V63.4279V65.1113L165.913 65.0439V63.4279C165.913 63.3606 165.913 63.3606 165.913 63.2933L164.553 60.0613Z" fill="#33484D"/>
<path d="M166.797 69.0167V70.296C167.409 72.4507 167.477 73.9993 166.933 74.8747C166.661 75.346 166.185 75.548 165.573 75.6827C165.097 75.75 164.689 75.6827 164.417 75.4133C164.009 75.0093 163.805 74.2687 163.805 73.1913C163.805 71.306 163.601 69.5553 163.465 67.67C163.397 67.266 163.397 66.862 163.329 66.458L162.921 66.5253C162.989 66.9293 162.989 67.3333 163.057 67.7373C163.261 69.6227 163.397 71.3733 163.397 73.2587C163.397 74.538 163.669 75.346 164.145 75.8173C164.417 76.0867 164.825 76.2213 165.301 76.2213C165.437 76.2213 165.505 76.2213 165.641 76.2213C166.389 76.154 166.933 75.8173 167.273 75.2787C167.953 73.932 167.817 71.912 166.797 69.0167Z" fill="#222930"/>
<path d="M166.797 72.114V72.7873C167.341 73.6627 167.409 74.538 167.069 75.2787C166.661 76.0867 165.777 76.558 164.689 76.4907C162.785 76.4233 162.513 74.6727 162.513 72.922C162.513 71.104 162.377 69.9593 162.241 68.478C162.173 68.074 162.173 67.4007 162.105 66.9293L161.765 67.1313C161.833 67.67 161.833 68.074 161.901 68.5453C162.037 70.0267 162.173 71.1713 162.173 72.922C162.173 74.0667 162.173 76.76 164.689 76.8273C164.757 76.8273 164.757 76.8273 164.825 76.8273C165.981 76.8273 167.001 76.2887 167.409 75.4133C167.885 74.4707 167.681 73.2587 166.797 72.114Z" fill="#222930"/>
<path d="M161.085 65.7847C161.085 65.7173 161.085 65.7173 161.085 65.7173L161.357 64.034L161.221 63.9667L160.949 65.65C160.949 65.7173 160.949 65.7847 160.949 65.852C161.017 65.9193 161.085 65.9867 161.153 65.9867L161.765 66.3233V66.1887C161.765 66.1887 161.153 65.7847 161.085 65.7847Z" fill="#ADC5C9"/>
<path d="M161.697 65.044C161.697 64.9767 161.629 64.842 161.561 64.7747C161.561 64.7747 161.493 64.64 161.425 64.64C161.425 64.64 161.493 65.246 161.221 65.5827C161.221 65.5827 161.221 65.65 161.289 65.65C161.493 65.5827 161.697 65.3807 161.765 65.246C161.765 65.1787 161.697 65.1113 161.697 65.044Z" fill="#BA1915"/>
<path d="M160.609 62.216L161.629 65.246C161.629 65.3133 161.629 65.3133 161.629 65.3807V67.266C161.629 67.3333 161.697 67.4007 161.765 67.3333L162.105 67.064C162.173 67.064 162.173 66.9967 162.173 66.9293V65.5153C162.173 65.3807 162.173 65.3133 162.105 65.1787L160.813 62.0813C160.745 62.014 160.541 62.1487 160.609 62.216Z" fill="#33484D"/>
<path d="M160.677 62.0813L161.901 65.3806V65.448V67.1313L162.037 67.064V65.448C162.037 65.3806 162.037 65.3806 162.037 65.3133L160.677 62.0813Z" fill="#33484D"/>
<path d="M162.377 65.1787C162.377 65.1114 162.377 65.1114 162.377 65.1114L162.649 63.4281L162.513 63.3607L162.241 65.0441C162.241 65.1114 162.241 65.1787 162.241 65.2461C162.309 65.3134 162.377 65.3807 162.445 65.3807L163.057 65.7174V65.5827C163.057 65.5154 162.377 65.1787 162.377 65.1787Z" fill="#ADC5C9"/>
<path d="M162.922 64.3707C162.922 64.3033 162.854 64.1687 162.786 64.1013C162.786 64.1013 162.718 63.9667 162.65 63.9667C162.65 63.9667 162.718 64.5727 162.446 64.9093C162.446 64.9093 162.446 64.9767 162.514 64.9767C162.718 64.9093 162.922 64.7073 162.99 64.5727C162.99 64.5727 162.99 64.5053 162.922 64.3707Z" fill="#BA1915"/>
<path d="M161.834 61.6101L162.854 64.6401C162.854 64.7074 162.854 64.7074 162.854 64.7747V66.6601C162.854 66.7274 162.922 66.7947 162.99 66.7274L163.33 66.4581C163.398 66.4581 163.398 66.3907 163.398 66.3234V64.9094C163.398 64.7747 163.398 64.7074 163.33 64.5727L162.038 61.4754C161.97 61.4081 161.766 61.4754 161.834 61.6101Z" fill="#33484D"/>
<path d="M161.969 61.4753C161.901 61.4753 161.901 61.4753 161.969 61.4753L163.193 64.7747V64.842V66.5253L163.329 66.458V64.842C163.329 64.7747 163.329 64.7747 163.329 64.7073L161.969 61.4753Z" fill="#33484D"/>
<path d="M172.714 17.776L172.918 73.73L168.906 76.0193L168.77 46.1233C168.77 43.228 166.662 42.0833 164.146 43.4973L159.386 46.1907C156.87 47.672 154.762 51.1733 154.762 54.0687L154.898 83.9647L150.954 86.254L150.75 30.3L172.714 17.776Z" fill="#BA9E59"/>
<path d="M172.714 17.776L172.918 73.73L168.906 76.0193L168.77 46.1233C168.77 43.228 166.662 42.0833 164.146 43.4973L159.386 46.1907C156.87 47.672 154.762 51.1733 154.762 54.0687L154.898 83.9647L150.954 86.254L150.75 30.3L172.714 17.776Z" fill="#DDCA9B"/>
<path d="M150.953 86.3213L154.897 84.032L154.829 55.954L150.885 58.176L150.953 86.3213Z" fill="#769353"/>
<path d="M168.906 76.0866L172.918 73.73L172.85 45.652L168.77 47.9413L168.906 76.0866Z" fill="#769353"/>
<path d="M146.33 83.628L150.954 86.3214L150.886 58.176L146.194 55.55L146.33 83.628Z" fill="#3D655D"/>
<path d="M108.453 80.6653C108.453 79.2513 107.909 78.2413 107.093 77.7026L102.469 75.0093C103.285 75.4806 103.829 76.4906 103.829 77.9719L103.965 107.868L108.589 110.561L108.453 80.6653Z" fill="#BA9E59"/>
<path d="M90.6376 120.796L86.0136 118.17L85.8096 62.2159L90.4336 64.8419L90.6376 120.796Z" fill="#BA9E59"/>
<path d="M90.4336 64.842L85.8096 62.216L107.774 49.6246L112.398 52.318L90.4336 64.842Z" fill="#71787A"/>
<path d="M112.398 52.318L112.602 108.272L108.59 110.561L108.454 80.6653C108.454 77.77 106.346 76.6253 103.83 78.0393L99.0696 80.7327C96.5536 82.214 94.4456 85.7153 94.4456 88.6107L94.5816 118.507L90.6376 120.796L90.4336 64.842L112.398 52.318Z" fill="#BA9E59"/>
<path d="M103.83 79.7899L103.898 107.935L108.59 110.561L108.454 82.4833L103.83 79.7899Z" fill="#3D655D"/>
<path d="M94.2417 94.4686C94.2417 93.3239 95.1257 91.9099 96.2817 91.3039L100.838 88.6779C101.45 88.3413 101.994 88.2739 102.402 88.5433C102.674 88.6779 105.19 90.0919 105.938 90.5633C106.074 90.6306 106.074 90.7653 106.006 90.8999L102.878 109.821L97.7777 112.716V116.756L94.2417 114.736V94.4686Z" fill="#3D655D"/>
<path opacity="0.5" d="M94.2417 94.4686C94.2417 93.3239 95.1257 91.9099 96.2817 91.3039L100.838 88.6779C101.45 88.3413 101.994 88.2739 102.402 88.5433C102.674 88.6779 105.19 90.0919 105.938 90.5633C106.074 90.6306 106.074 90.7653 106.006 90.8999L105.394 93.8626L99.2737 97.3639L94.2417 94.4686Z" fill="#D3BD88"/>
<path opacity="0.6" d="M106.006 90.8326L99.1376 94.738L95.0576 92.3813C95.3976 91.91 95.8056 91.506 96.2816 91.304L100.838 88.678C101.178 88.476 101.518 88.3413 101.858 88.3413L106.006 90.8326Z" fill="#D3BD88"/>
<path opacity="0.5" d="M99.8856 93.324L96.3496 91.304L100.838 88.7454L104.374 90.7654L99.8856 93.324Z" fill="#D3BD88"/>
<path d="M97.7776 116.756L106.414 111.841V91.6407C106.414 90.496 105.53 90.1593 104.374 90.7653L99.8176 93.3913C98.6616 94.0646 97.7776 95.4786 97.7776 96.556V116.756Z" fill="#0080BC"/>
<path d="M97.7776 116.756L106.414 111.841V91.6407C106.414 90.496 105.53 90.1593 104.374 90.7653L99.8176 93.3913C98.6616 94.0646 97.7776 95.4786 97.7776 96.556V116.756Z" fill="#769353"/>
<path opacity="0.6" d="M105.666 96.96V92.2466L98.7297 96.2193V100.933L105.666 96.96Z" fill="#0D57BC"/>
<path d="M98.8657 100.596L105.53 96.8253V92.516L98.8657 96.354V100.596Z" fill="#DCE0E2"/>
<path d="M99.8856 99.182L104.578 96.4886C104.646 96.4213 104.782 96.2866 104.782 96.2193V94.0646C104.782 93.9973 104.714 93.93 104.578 93.9973L99.8856 96.6906C99.8176 96.758 99.6816 96.8926 99.6816 96.96V99.1146C99.6816 99.182 99.7496 99.182 99.8856 99.182Z" fill="#979FA5"/>
<path opacity="0.6" d="M105.054 93.2567L98.8657 96.758V96.354L105.53 92.516V96.8253L105.054 97.0947V93.2567Z" fill="#979FA5"/>
<path opacity="0.6" d="M105.326 92.8527L98.8657 96.556V96.354L105.53 92.516V96.8253L105.326 96.96V92.8527Z" fill="#979FA5"/>
<path opacity="0.6" d="M104.646 96.4213V94.2666C104.646 94.1993 104.578 94.132 104.442 94.1993L99.7496 96.8926C99.7496 96.8926 99.6816 96.8926 99.6816 96.96C99.6816 96.8926 99.7496 96.758 99.8856 96.6906L104.578 93.9973C104.646 93.93 104.782 93.9973 104.782 94.0646V96.2193C104.782 96.2193 104.714 96.354 104.646 96.4213Z" fill="#979FA5"/>
<path d="M106.414 105.579V106.185C106.686 106.589 106.822 106.993 106.822 107.397C106.822 107.666 106.754 108.003 106.346 108.07C106.074 108.137 105.87 107.868 105.734 107.464C105.598 107.127 105.53 106.319 105.53 105.309V104.905C105.53 104.165 105.53 103.424 105.598 102.616C105.598 101.337 105.666 100.057 105.598 99.1146H105.19C105.258 100.057 105.19 101.337 105.19 102.616C105.122 104.838 105.054 106.858 105.326 107.599C105.53 108.137 105.87 108.407 106.278 108.407C106.346 108.407 106.346 108.407 106.414 108.407C106.958 108.339 107.23 107.935 107.23 107.329C107.23 106.791 106.89 106.05 106.414 105.579Z" fill="#222930"/>
<path d="M106.414 107.464C106.278 107.06 105.938 106.791 105.462 106.723L105.394 107.127C105.666 107.127 105.938 107.262 106.074 107.599C106.142 107.733 106.074 107.868 106.006 108.07C105.87 108.339 105.53 108.541 105.326 108.609C105.054 108.676 104.85 108.609 104.714 108.474C104.102 107.935 104.238 105.983 104.374 104.299C104.442 103.087 104.578 102.01 104.442 101.202C104.442 101 104.374 100.865 104.374 100.663C104.374 100.461 104.306 100.259 104.306 99.9899L103.898 100.057C103.966 100.259 103.966 100.461 103.966 100.663C103.966 100.865 104.034 101 104.034 101.202C104.17 101.943 104.102 103.02 103.966 104.165C103.83 106.185 103.694 108.003 104.442 108.676C104.646 108.811 104.85 108.878 105.054 108.878C105.122 108.878 105.258 108.878 105.394 108.811C105.666 108.743 106.074 108.474 106.278 108.137C106.482 107.935 106.482 107.733 106.414 107.464Z" fill="#222930"/>
<path d="M103.286 98.8453C103.286 98.7779 103.286 98.7779 103.286 98.7779L103.558 97.0946L103.422 97.0273L103.15 98.7106C103.15 98.7779 103.15 98.8453 103.15 98.9126C103.218 98.9799 103.286 99.0473 103.354 99.0473L103.966 99.3839V99.2493C103.966 99.2493 103.354 98.9126 103.286 98.8453Z" fill="#ADC5C9"/>
<path d="M103.898 98.1046C103.898 98.0373 103.83 97.9026 103.762 97.8353C103.762 97.8353 103.694 97.7006 103.626 97.7006C103.626 97.7006 103.694 98.3066 103.422 98.6433C103.422 98.6433 103.422 98.7106 103.49 98.7106C103.694 98.6433 103.898 98.4413 103.966 98.3066C103.966 98.2393 103.898 98.2393 103.898 98.1046Z" fill="#BA1915"/>
<path d="M102.81 95.344L103.83 98.374C103.83 98.4413 103.83 98.4413 103.83 98.5086V100.394C103.83 100.461 103.898 100.529 103.966 100.461L104.306 100.192C104.374 100.192 104.374 100.125 104.374 100.057V98.6433C104.374 98.5086 104.374 98.4413 104.306 98.3066L103.014 95.2093C102.946 95.0746 102.742 95.2093 102.81 95.344Z" fill="#33484D"/>
<path d="M102.878 95.142L104.102 98.4413V98.5086V100.192L104.238 100.125V98.5086C104.238 98.4413 104.238 98.4413 104.238 98.374L102.878 95.142Z" fill="#33484D"/>
<path d="M104.578 98.2393C104.578 98.1719 104.578 98.1719 104.578 98.1719L104.85 96.4886L104.714 96.4213L104.442 98.1046C104.442 98.1719 104.442 98.2393 104.442 98.3066C104.51 98.3739 104.578 98.4413 104.646 98.4413L105.258 98.7779V98.6433C105.258 98.6433 104.578 98.3066 104.578 98.2393Z" fill="#ADC5C9"/>
<path d="M105.19 97.4986C105.19 97.4313 105.122 97.2966 105.054 97.2293C105.054 97.2293 104.986 97.0946 104.918 97.0946C104.918 97.0946 104.986 97.7006 104.714 98.0373C104.714 98.0373 104.714 98.1046 104.782 98.1046C104.986 98.0373 105.19 97.8353 105.258 97.7006C105.19 97.6333 105.19 97.5659 105.19 97.4986Z" fill="#BA1915"/>
<path d="M104.034 94.7379L105.054 97.7679C105.054 97.8353 105.054 97.8353 105.054 97.9026V99.7879C105.054 99.8553 105.122 99.9226 105.19 99.8553L105.53 99.5859C105.598 99.5859 105.598 99.5186 105.598 99.4513V98.0373C105.598 97.9026 105.598 97.8353 105.53 97.7006L104.238 94.6033C104.17 94.4686 104.034 94.6033 104.034 94.7379Z" fill="#33484D"/>
<path d="M104.17 94.5359C104.102 94.5359 104.102 94.5359 104.17 94.5359L105.394 97.8353V97.9026V99.5859L105.53 99.5186V97.97C105.53 97.9026 105.53 97.9026 105.53 97.8353L104.17 94.5359Z" fill="#33484D"/>
<path d="M106.414 103.491V104.771C107.026 106.925 107.094 108.474 106.55 109.349C106.278 109.821 105.802 110.023 105.19 110.157C104.714 110.225 104.306 110.157 104.034 109.888C103.626 109.484 103.422 108.743 103.422 107.666C103.422 105.781 103.218 104.03 103.082 102.145C103.014 101.741 103.014 101.337 102.946 100.933L102.538 101C102.606 101.404 102.606 101.808 102.674 102.212C102.878 104.097 103.014 105.848 103.014 107.733C103.014 109.013 103.286 109.821 103.762 110.292C104.034 110.561 104.442 110.696 104.918 110.696C105.054 110.696 105.122 110.696 105.258 110.696C106.006 110.629 106.55 110.292 106.89 109.753C107.57 108.407 107.366 106.454 106.414 103.491Z" fill="#222930"/>
<path d="M106.414 106.656V107.329C106.958 108.205 107.026 109.08 106.686 109.821C106.278 110.629 105.394 111.1 104.306 111.033C102.402 110.965 102.13 109.215 102.13 107.464C102.13 105.646 101.994 104.501 101.858 103.02C101.79 102.616 101.79 101.943 101.722 101.471L101.382 101.673C101.45 102.212 101.45 102.616 101.518 103.087C101.654 104.569 101.79 105.713 101.79 107.464C101.79 108.609 101.79 111.302 104.306 111.369C104.374 111.369 104.374 111.369 104.442 111.369C105.598 111.369 106.618 110.831 107.026 109.955C107.502 109.013 107.298 107.801 106.414 106.656Z" fill="#222930"/>
<path d="M100.702 100.327C100.702 100.259 100.702 100.259 100.702 100.259L100.974 98.576L100.838 98.5087L100.566 100.192C100.566 100.259 100.566 100.327 100.566 100.394C100.566 100.461 100.702 100.529 100.77 100.529L101.382 100.865V100.731C101.382 100.663 100.702 100.327 100.702 100.327Z" fill="#ADC5C9"/>
<path d="M101.314 99.5187C101.314 99.4514 101.246 99.3167 101.178 99.2493C101.178 99.2493 101.11 99.1147 101.042 99.1147C101.042 99.1147 101.11 99.7207 100.838 100.057C100.838 100.057 100.838 100.125 100.906 100.125C101.11 100.057 101.314 99.8554 101.382 99.7207C101.314 99.7207 101.314 99.6534 101.314 99.5187Z" fill="#BA1915"/>
<path d="M100.158 96.758L101.178 99.788C101.178 99.8553 101.178 99.8553 101.178 99.9227V101.808C101.178 101.875 101.246 101.943 101.314 101.875L101.654 101.606C101.722 101.606 101.722 101.539 101.722 101.471V100.057C101.722 99.9227 101.722 99.8553 101.654 99.7207L100.362 96.6233C100.294 96.556 100.158 96.6233 100.158 96.758Z" fill="#33484D"/>
<path d="M100.294 96.6234L101.518 99.9227V99.99V101.673L101.654 101.606V99.99C101.654 99.9227 101.654 99.9227 101.654 99.8554L100.294 96.6234Z" fill="#33484D"/>
<path d="M101.926 99.6533C101.926 99.586 101.926 99.586 101.926 99.586L102.198 97.9027L102.062 97.8353L101.79 99.5187C101.79 99.586 101.79 99.6533 101.79 99.7207C101.858 99.788 101.926 99.8553 101.994 99.8553L102.606 100.192V100.057C102.674 100.057 101.994 99.7207 101.926 99.6533Z" fill="#ADC5C9"/>
<path d="M102.538 98.9127C102.538 98.8453 102.47 98.7107 102.402 98.6433C102.402 98.6433 102.334 98.5087 102.266 98.5087C102.266 98.5087 102.334 99.1147 102.062 99.4513C102.062 99.4513 102.062 99.5187 102.13 99.5187C102.334 99.4513 102.538 99.2493 102.606 99.1147C102.606 99.1147 102.538 99.0473 102.538 98.9127Z" fill="#BA1915"/>
<path d="M101.45 96.152L102.47 99.182C102.47 99.2493 102.47 99.2493 102.47 99.3167V101.202C102.47 101.269 102.538 101.337 102.606 101.269L102.946 101C103.014 101 103.014 100.933 103.014 100.865V99.4513C103.014 99.3166 103.014 99.2493 102.946 99.1146L101.654 96.0173C101.586 95.95 101.382 96.0173 101.45 96.152Z" fill="#33484D"/>
<path d="M101.518 96.0173L102.742 99.3167V99.384V101.067L102.878 101V99.384C102.878 99.3167 102.878 99.3167 102.878 99.2493L101.518 96.0173Z" fill="#33484D"/>
<path d="M112.398 52.318L112.602 108.272L108.59 110.561L108.454 80.6653C108.454 77.77 106.346 76.6253 103.83 78.0393L99.0696 80.7327C96.5536 82.214 94.4456 85.7153 94.4456 88.6107L94.5816 118.507L90.6376 120.796L90.4336 64.842L112.398 52.318Z" fill="#DDCA9B"/>
<path d="M90.6375 120.796L94.5815 118.574L94.4455 90.4286L90.5015 92.6506L90.6375 120.796Z" fill="#769353"/>
<path d="M108.59 110.561L112.602 108.272L112.534 80.1266L108.454 82.4159L108.59 110.561Z" fill="#769353"/>
<path d="M86.0137 118.17L90.6377 120.796L90.5017 92.6507L85.8777 90.0247L86.0137 118.17Z" fill="#3D655D"/>
<path d="M226.434 102.414V103.626L140.55 153.116V151.904L226.434 102.414Z" fill="#A58641"/>
<path d="M140.55 151.904V153.116L130.962 147.595V146.383L140.55 151.904Z" fill="#7F6532"/>
<path d="M226.434 102.414L140.55 151.904L130.962 146.383L216.846 96.96L226.434 102.414Z" fill="#DDCA9B"/>
<path opacity="0.3" d="M226.434 102.414L140.55 151.904L130.962 146.383L216.846 96.96L226.434 102.414Z" fill="#BA9E59"/>
<path d="M217.934 74.2688C217.934 72.8548 217.39 71.8448 216.574 71.3061L211.95 68.6128C212.766 69.0841 213.31 70.0941 213.31 71.5755L213.446 101.471L218.07 104.165L217.934 74.2688Z" fill="#BA9E59"/>
<path d="M200.118 114.399L195.494 111.706L195.29 55.7521L199.914 58.4454L200.118 114.399Z" fill="#BA9E59"/>
<path d="M199.914 58.4454L195.29 55.752L217.254 43.228L221.878 45.854L199.914 58.4454Z" fill="#71787A"/>
<path d="M213.378 101.471L218.07 104.165L217.934 76.0193L213.31 73.3933L213.378 101.471Z" fill="#3D655D"/>
<path d="M203.79 88.072C203.79 86.9273 204.674 85.5133 205.83 84.9073L210.386 82.2813C210.998 81.9447 211.542 81.8773 211.95 82.1467C212.222 82.2813 214.738 83.6953 215.486 84.1667C215.622 84.234 215.622 84.3687 215.554 84.5033L212.426 103.424L207.326 106.319V110.359L203.79 108.339V88.072Z" fill="#3D655D"/>
<path opacity="0.5" d="M203.79 88.072C203.79 86.9273 204.674 85.5133 205.83 84.9073L210.386 82.2813C210.998 81.9447 211.542 81.8773 211.95 82.1467C212.222 82.2813 214.738 83.6953 215.486 84.1667C215.622 84.234 215.622 84.3687 215.554 84.5033L214.942 87.466L208.822 90.9673L203.79 88.072Z" fill="#D3BD88"/>
<path opacity="0.6" d="M215.554 84.436L208.686 88.3414L204.606 85.9847C204.946 85.5134 205.354 85.1094 205.83 84.9074L210.386 82.2814C210.726 82.0794 211.066 81.9447 211.406 81.9447L215.554 84.436C215.554 84.3687 215.554 84.3687 215.554 84.436Z" fill="#D3BD88"/>
<path opacity="0.5" d="M209.434 86.9274L205.898 84.9074L210.386 82.3488L213.922 84.3688L209.434 86.9274Z" fill="#D3BD88"/>
<path d="M207.326 110.292L215.962 105.377V85.1767C215.962 84.032 215.078 83.6953 213.922 84.3013L209.366 86.9273C208.21 87.6007 207.326 89.0147 207.326 90.092V110.292Z" fill="#769353"/>
<path opacity="0.6" d="M215.214 90.496V85.7827L208.278 89.7554V94.4687L215.214 90.496Z" fill="#0D57BC"/>
<path d="M208.414 94.1993L215.078 90.3613V86.052L208.414 89.89V94.1993Z" fill="#DCE0E2"/>
<path d="M209.434 92.718L214.126 90.0247C214.194 89.9574 214.33 89.8227 214.33 89.7554V87.6007C214.33 87.5334 214.262 87.466 214.126 87.5334L209.434 90.2267C209.366 90.294 209.23 90.4287 209.23 90.496V92.6507C209.23 92.7181 209.366 92.7854 209.434 92.718Z" fill="#979FA5"/>
<path opacity="0.6" d="M214.602 86.7927L208.414 90.3613V89.89L215.078 86.052V90.3613L214.602 90.6307V86.7927Z" fill="#979FA5"/>
<path opacity="0.6" d="M214.874 86.3887L208.414 90.092V89.89L215.078 86.052V90.3613L214.874 90.496V86.3887Z" fill="#979FA5"/>
<path opacity="0.6" d="M214.194 89.9574V87.8027C214.194 87.7354 214.126 87.6681 213.99 87.7354L209.298 90.4287C209.298 90.4287 209.23 90.4287 209.23 90.496C209.23 90.4287 209.298 90.294 209.434 90.2267L214.126 87.5334C214.194 87.466 214.33 87.5334 214.33 87.6007V89.7554C214.33 89.8227 214.262 89.8901 214.194 89.9574Z" fill="#979FA5"/>
<path d="M215.962 99.1147V99.7207C216.234 100.125 216.37 100.529 216.37 100.933C216.37 101.202 216.302 101.539 215.894 101.606C215.622 101.673 215.418 101.404 215.282 101C215.146 100.663 215.078 99.8554 215.078 98.8454V98.4414C215.078 97.7007 215.078 96.96 215.146 96.152C215.146 94.8727 215.214 93.5934 215.146 92.6507H214.738C214.806 93.5934 214.738 94.8727 214.738 96.152C214.67 98.374 214.602 100.394 214.874 101.135C215.078 101.673 215.418 101.943 215.826 101.943C215.894 101.943 215.894 101.943 215.962 101.943C216.506 101.875 216.778 101.471 216.778 100.865C216.778 100.327 216.438 99.6534 215.962 99.1147Z" fill="#222930"/>
<path d="M215.962 101C215.826 100.596 215.486 100.327 215.01 100.259L214.942 100.663C215.214 100.663 215.486 100.798 215.622 101.135C215.69 101.269 215.622 101.404 215.554 101.606C215.418 101.875 215.078 102.077 214.874 102.145C214.602 102.212 214.398 102.145 214.262 102.01C213.65 101.471 213.786 99.5187 213.922 97.8353C213.99 96.6233 214.126 95.546 213.99 94.738C213.99 94.536 213.922 94.4013 213.922 94.1993C213.922 93.9973 213.854 93.7953 213.854 93.526L213.446 93.5933C213.514 93.7953 213.514 93.9973 213.514 94.1993C213.514 94.4013 213.582 94.536 213.582 94.738C213.718 95.4787 213.65 96.556 213.514 97.7007C213.378 99.7207 213.242 101.539 213.99 102.212C214.194 102.347 214.398 102.414 214.602 102.414C214.67 102.414 214.806 102.414 214.942 102.347C215.214 102.279 215.622 102.01 215.826 101.673C216.03 101.539 216.03 101.269 215.962 101Z" fill="#222930"/>
<path d="M212.834 92.4486C212.834 92.3813 212.834 92.3813 212.834 92.3813L213.106 90.6979L212.97 90.6306L212.698 92.3139C212.698 92.3813 212.698 92.4486 212.698 92.5159C212.766 92.5833 212.834 92.6506 212.902 92.6506L213.514 92.9873V92.8526C213.582 92.7853 212.902 92.4486 212.834 92.4486Z" fill="#ADC5C9"/>
<path d="M213.446 91.6406C213.446 91.5732 213.378 91.4386 213.31 91.3712C213.31 91.3712 213.242 91.2366 213.174 91.2366C213.174 91.2366 213.242 91.8426 212.97 92.1792C212.97 92.1792 212.97 92.2466 213.038 92.2466C213.242 92.1792 213.446 91.9772 213.514 91.8426C213.514 91.8426 213.446 91.7752 213.446 91.6406Z" fill="#BA1915"/>
<path d="M212.358 88.88L213.378 91.91C213.378 91.9773 213.378 91.9773 213.378 92.0446V93.93C213.378 93.9973 213.446 94.0646 213.514 93.9973L213.854 93.728C213.922 93.728 213.922 93.6606 213.922 93.5933V92.1793C213.922 92.0446 213.922 91.9773 213.854 91.8426L212.562 88.7453C212.494 88.678 212.29 88.7453 212.358 88.88Z" fill="#33484D"/>
<path d="M212.426 88.7452L213.65 92.0446V92.1119V93.7952L213.786 93.7279V92.1119C213.786 92.0446 213.786 92.0446 213.786 91.9772L212.426 88.7452Z" fill="#33484D"/>
<path d="M214.126 91.7754C214.126 91.7081 214.126 91.7081 214.126 91.7081L214.398 90.0247L214.262 89.9574L213.99 91.6407C213.99 91.7081 213.99 91.7754 213.99 91.8427C214.058 91.9101 214.126 91.9774 214.194 91.9774L214.806 92.3141V92.1794C214.806 92.1794 214.126 91.8427 214.126 91.7754Z" fill="#ADC5C9"/>
<path d="M214.738 91.0346C214.738 90.9673 214.67 90.8326 214.602 90.7653C214.602 90.7653 214.534 90.6306 214.466 90.6306C214.466 90.6306 214.534 91.2366 214.262 91.5733C214.262 91.5733 214.262 91.6406 214.33 91.6406C214.534 91.5733 214.738 91.3713 214.806 91.2366C214.738 91.2366 214.738 91.1693 214.738 91.0346Z" fill="#BA1915"/>
<path d="M213.582 88.274L214.602 91.304C214.602 91.3713 214.602 91.3713 214.602 91.4387V93.324C214.602 93.3913 214.67 93.4587 214.738 93.3913L215.078 93.122C215.146 93.122 215.146 93.0547 215.146 92.9873V91.5733C215.146 91.4387 215.146 91.3713 215.078 91.2367L213.786 88.1393C213.718 88.072 213.582 88.1393 213.582 88.274Z" fill="#33484D"/>
<path d="M213.718 88.1393L214.942 91.4386V91.5059V93.1893L215.078 93.122V91.5059C215.078 91.4386 215.078 91.4386 215.078 91.3713L213.718 88.1393Z" fill="#33484D"/>
<path d="M215.962 97.0947V98.3741C216.574 100.529 216.642 102.077 216.098 102.953C215.826 103.424 215.35 103.626 214.738 103.761C214.262 103.828 213.854 103.761 213.582 103.491C213.174 103.087 212.97 102.347 212.97 101.269C212.97 99.3841 212.766 97.6334 212.63 95.7481C212.562 95.3441 212.562 94.9401 212.494 94.5361L212.086 94.6034C212.154 95.0074 212.154 95.4114 212.222 95.8154C212.426 97.7007 212.562 99.4514 212.562 101.337C212.562 102.616 212.834 103.424 213.31 103.895C213.582 104.165 213.99 104.299 214.466 104.299C214.602 104.299 214.67 104.299 214.806 104.299C215.554 104.232 216.098 103.895 216.438 103.357C217.118 102.01 216.982 99.9901 215.962 97.0947Z" fill="#222930"/>
<path d="M215.962 100.192V100.865C216.506 101.741 216.574 102.616 216.234 103.357C215.826 104.165 214.942 104.636 213.854 104.569C211.95 104.501 211.678 102.751 211.678 101C211.678 99.182 211.542 98.0374 211.406 96.556C211.338 96.152 211.338 95.4787 211.27 95.0074L210.93 95.2094C210.998 95.748 210.998 96.152 211.066 96.6234C211.202 98.1047 211.338 99.2494 211.338 101C211.338 102.145 211.338 104.838 213.854 104.905C213.922 104.905 213.922 104.905 213.99 104.905C215.146 104.905 216.166 104.367 216.574 103.491C217.05 102.549 216.846 101.337 215.962 100.192Z" fill="#222930"/>
<path d="M210.25 93.8627C210.25 93.7953 210.25 93.7953 210.25 93.7953L210.522 92.112L210.386 92.0447L210.114 93.728C210.114 93.7953 210.114 93.8627 210.114 93.93C210.182 93.9973 210.25 94.0647 210.318 94.0647L210.93 94.4013V94.2667L210.25 93.8627Z" fill="#ADC5C9"/>
<path d="M210.862 93.122C210.862 93.0547 210.794 92.92 210.726 92.8527C210.726 92.8527 210.658 92.718 210.59 92.718C210.59 92.718 210.658 93.324 210.386 93.6607C210.386 93.6607 210.386 93.728 210.454 93.728C210.658 93.6607 210.862 93.4587 210.93 93.324C210.862 93.2567 210.862 93.1894 210.862 93.122Z" fill="#BA1915"/>
<path d="M209.706 90.294L210.726 93.324C210.726 93.3914 210.726 93.3913 210.726 93.4587V95.344C210.726 95.4113 210.794 95.4787 210.862 95.4113L211.202 95.142C211.27 95.142 211.27 95.0747 211.27 95.0073V93.5933C211.27 93.4587 211.27 93.3913 211.202 93.2567L209.91 90.1593C209.842 90.092 209.706 90.2267 209.706 90.294Z" fill="#33484D"/>
<path d="M209.842 90.1593L211.066 93.4586V93.526V95.2093L211.202 95.142V93.526C211.202 93.4586 211.202 93.4586 211.202 93.3913L209.842 90.1593Z" fill="#33484D"/>
<path d="M211.474 93.2567C211.474 93.1894 211.474 93.1894 211.474 93.1894L211.746 91.506L211.61 91.4387L211.338 93.1221C211.338 93.1894 211.338 93.2567 211.338 93.3241C211.406 93.3914 211.474 93.4587 211.542 93.4587L212.154 93.7954V93.6607C212.222 93.5934 211.542 93.2567 211.474 93.2567Z" fill="#ADC5C9"/>
<path d="M212.086 92.4487C212.086 92.3814 212.018 92.2467 211.95 92.1794C211.95 92.1794 211.882 92.0447 211.814 92.0447C211.814 92.0447 211.882 92.6507 211.61 92.9874C211.61 92.9874 211.61 93.0547 211.678 93.0547C211.882 92.9874 212.086 92.7854 212.154 92.6507C212.154 92.6507 212.086 92.5834 212.086 92.4487Z" fill="#BA1915"/>
<path d="M210.998 89.6881L212.018 92.7181C212.018 92.7854 212.018 92.7854 212.018 92.8527V94.7381C212.018 94.8054 212.086 94.8727 212.154 94.8054L212.494 94.5361C212.562 94.5361 212.562 94.4687 212.562 94.4014V92.9874C212.562 92.8527 212.562 92.7854 212.494 92.6507L211.202 89.5534C211.134 89.4861 210.93 89.5534 210.998 89.6881Z" fill="#33484D"/>
<path d="M211.066 89.5533L212.29 92.8527V92.92V94.6033L212.426 94.536V92.92C212.426 92.8527 212.426 92.8527 212.426 92.7853L211.066 89.5533Z" fill="#33484D"/>
<path d="M221.878 45.854L222.082 101.808L218.07 104.097L217.934 74.2013C217.934 71.306 215.826 70.1613 213.31 71.5753L208.55 74.2687C206.034 75.75 203.926 79.2513 203.926 82.1467L204.062 112.043L200.118 114.332L199.914 58.378L221.878 45.854Z" fill="#BA9E59"/>
<path d="M221.878 45.854L222.082 101.808L218.07 104.097L217.934 74.2013C217.934 71.306 215.826 70.1613 213.31 71.5753L208.55 74.2687C206.034 75.75 203.926 79.2513 203.926 82.1467L204.062 112.043L200.118 114.332L199.914 58.378L221.878 45.854Z" fill="#DDCA9B"/>
<path d="M200.118 114.399L204.062 112.11L203.926 84.032L199.982 86.254L200.118 114.399Z" fill="#769353"/>
<path d="M218.07 104.165L222.082 101.808L221.946 73.73L217.934 76.0193L218.07 104.165Z" fill="#769353"/>
<path d="M195.494 111.706L200.118 114.399L199.982 86.2541L195.358 83.6281L195.494 111.706Z" fill="#3D655D"/>
<path d="M157.618 108.743C157.618 107.329 157.074 106.319 156.258 105.781L151.634 103.087C152.45 103.559 152.994 104.569 152.994 106.05L153.13 135.946L157.754 138.639L157.618 108.743Z" fill="#BA9E59"/>
<path d="M139.802 148.941L135.11 146.248L134.906 90.2939L139.598 92.9199L139.802 148.941Z" fill="#BA9E59"/>
<path d="M139.598 92.92L134.906 90.294L156.938 77.7026L161.562 80.396L139.598 92.92Z" fill="#71787A"/>
<path d="M161.562 80.396L161.766 136.35L157.754 138.639L157.618 108.743C157.618 105.848 155.51 104.703 152.994 106.117L148.234 108.811C145.718 110.292 143.61 113.793 143.61 116.689L143.746 146.585L139.802 148.874L139.598 92.92L161.562 80.396Z" fill="#BA9E59"/>
<path d="M152.926 107.868L153.062 136.013L157.686 138.639L157.618 110.561L152.926 107.868Z" fill="#3D655D"/>
<path d="M143.406 122.547C143.406 121.402 144.29 119.988 145.446 119.382L150.002 116.756C150.614 116.419 151.158 116.352 151.566 116.621C151.838 116.756 154.354 118.17 155.102 118.641C155.238 118.709 155.238 118.843 155.17 118.978L152.042 137.899L146.942 140.794V144.834L143.406 142.814V122.547Z" fill="#3D655D"/>
<path opacity="0.5" d="M143.406 122.547C143.406 121.402 144.29 119.988 145.446 119.382L150.002 116.756C150.614 116.419 151.158 116.352 151.566 116.621C151.838 116.756 154.354 118.17 155.102 118.641C155.238 118.709 155.238 118.843 155.17 118.978L154.558 121.941L148.438 125.442L143.406 122.547Z" fill="#A58641"/>
<path opacity="0.6" d="M155.17 118.911L148.302 122.816L144.222 120.459C144.562 119.988 144.97 119.584 145.446 119.382L150.002 116.756C150.342 116.554 150.682 116.419 151.022 116.419L155.17 118.911Z" fill="#D3BD88"/>
<path opacity="0.5" d="M148.982 121.402L145.446 119.382L149.934 116.823L153.47 118.843L148.982 121.402Z" fill="#D3BD88"/>
<path d="M146.942 144.834L155.578 139.919V119.719C155.578 118.574 154.694 118.237 153.538 118.843L148.982 121.469C147.826 122.143 146.942 123.557 146.942 124.634V144.834Z" fill="#0080BC"/>
<path d="M146.942 144.834L155.578 139.919V119.719C155.578 118.574 154.694 118.237 153.538 118.843L148.982 121.469C147.826 122.143 146.942 123.557 146.942 124.634V144.834Z" fill="#769353"/>
<path opacity="0.6" d="M154.83 125.038V120.325L147.894 124.297V129.011L154.83 125.038Z" fill="#0D57BC"/>
<path d="M148.03 128.674L154.694 124.903V120.594L148.03 124.432V128.674Z" fill="#DCE0E2"/>
<path d="M149.05 127.26L153.742 124.567C153.81 124.499 153.946 124.365 153.946 124.297V122.143C153.946 122.075 153.878 122.008 153.742 122.075L149.05 124.769C148.982 124.836 148.846 124.971 148.846 125.038V127.193C148.846 127.26 148.914 127.26 149.05 127.26Z" fill="#979FA5"/>
<path opacity="0.6" d="M154.218 121.335L148.03 124.836V124.432L154.694 120.594V124.903L154.218 125.173V121.335Z" fill="#979FA5"/>
<path opacity="0.6" d="M154.49 120.931L148.03 124.634V124.432L154.694 120.594V124.903L154.49 125.038V120.931Z" fill="#979FA5"/>
<path opacity="0.6" d="M153.81 124.499V122.345C153.81 122.277 153.742 122.21 153.606 122.277L148.914 124.971C148.914 124.971 148.846 124.971 148.846 125.038C148.846 124.971 148.914 124.836 149.05 124.769L153.742 122.075C153.81 122.008 153.946 122.075 153.946 122.143V124.297C153.946 124.297 153.878 124.432 153.81 124.499Z" fill="#979FA5"/>
<path d="M155.578 133.657V134.263C155.85 134.667 155.986 135.071 155.986 135.475C155.986 135.744 155.918 136.081 155.51 136.148C155.238 136.215 155.034 135.946 154.898 135.542C154.762 135.205 154.694 134.397 154.694 133.387V132.983C154.694 132.243 154.694 131.502 154.762 130.694C154.762 129.415 154.83 128.135 154.762 127.193H154.354C154.422 128.135 154.354 129.415 154.354 130.694C154.286 132.916 154.218 134.936 154.49 135.677C154.694 136.215 155.034 136.485 155.442 136.485C155.51 136.485 155.51 136.485 155.578 136.485C156.122 136.417 156.394 136.013 156.394 135.407C156.326 134.869 156.054 134.128 155.578 133.657Z" fill="#222930"/>
<path d="M155.578 135.542C155.442 135.138 155.102 134.869 154.626 134.801L154.558 135.205C154.83 135.205 155.102 135.34 155.238 135.677C155.306 135.811 155.238 135.946 155.17 136.148C155.034 136.417 154.694 136.619 154.49 136.687C154.218 136.754 154.014 136.687 153.878 136.552C153.266 136.013 153.402 134.061 153.538 132.377C153.606 131.165 153.742 130.088 153.606 129.28C153.606 129.078 153.538 128.943 153.538 128.741C153.538 128.539 153.47 128.337 153.47 128.068L153.062 128.135C153.13 128.337 153.13 128.539 153.13 128.741C153.13 128.943 153.198 129.078 153.198 129.28C153.334 130.021 153.266 131.098 153.13 132.243C152.994 134.263 152.858 136.081 153.606 136.754C153.81 136.889 154.014 136.956 154.218 136.956C154.286 136.956 154.422 136.956 154.558 136.889C154.83 136.821 155.238 136.552 155.442 136.215C155.578 136.013 155.646 135.811 155.578 135.542Z" fill="#222930"/>
<path d="M152.45 126.923C152.45 126.856 152.45 126.856 152.45 126.856L152.722 125.173L152.586 125.105L152.314 126.789C152.314 126.856 152.314 126.923 152.314 126.991C152.314 127.058 152.45 127.125 152.518 127.125L153.13 127.462V127.327C153.13 127.327 152.45 126.991 152.45 126.923Z" fill="#ADC5C9"/>
<path d="M153.062 126.183C153.062 126.115 152.994 125.981 152.926 125.913C152.926 125.913 152.858 125.779 152.79 125.779C152.79 125.779 152.858 126.385 152.586 126.721C152.586 126.721 152.586 126.789 152.654 126.789C152.858 126.721 153.062 126.519 153.13 126.385C153.062 126.385 153.062 126.317 153.062 126.183Z" fill="#BA1915"/>
<path d="M151.906 123.422L152.926 126.452C152.926 126.519 152.926 126.519 152.926 126.587V128.472C152.926 128.539 152.994 128.607 153.062 128.539L153.402 128.27C153.47 128.27 153.47 128.203 153.47 128.135V126.721C153.47 126.587 153.47 126.519 153.402 126.385L152.11 123.287C152.11 123.153 151.906 123.287 151.906 123.422Z" fill="#33484D"/>
<path d="M152.042 123.22L153.266 126.519V126.587V128.27L153.402 128.203V126.587C153.402 126.519 153.402 126.519 153.402 126.452L152.042 123.22Z" fill="#33484D"/>
<path d="M153.742 126.317C153.742 126.25 153.742 126.25 153.742 126.25L154.014 124.567L153.878 124.499L153.606 126.183C153.606 126.25 153.606 126.317 153.606 126.385C153.674 126.452 153.742 126.519 153.81 126.519L154.422 126.856V126.721C154.422 126.721 153.742 126.385 153.742 126.317Z" fill="#ADC5C9"/>
<path d="M154.286 125.577C154.286 125.509 154.218 125.375 154.15 125.307C154.15 125.307 154.082 125.173 154.014 125.173C154.014 125.173 154.082 125.779 153.81 126.115C153.81 126.115 153.81 126.183 153.878 126.183C154.082 126.115 154.286 125.913 154.354 125.779C154.354 125.711 154.354 125.711 154.286 125.577Z" fill="#BA1915"/>
<path d="M153.198 122.816L154.218 125.846C154.218 125.913 154.218 125.913 154.218 125.981V127.866C154.218 127.933 154.286 128.001 154.354 127.933L154.694 127.664C154.762 127.664 154.762 127.597 154.762 127.529V126.115C154.762 125.981 154.762 125.913 154.694 125.779L153.402 122.681C153.334 122.547 153.13 122.681 153.198 122.816Z" fill="#33484D"/>
<path d="M153.334 122.614C153.266 122.614 153.266 122.614 153.334 122.614L154.558 125.913V125.981V127.664L154.694 127.597V125.981C154.694 125.913 154.694 125.913 154.694 125.846L153.334 122.614Z" fill="#33484D"/>
<path d="M155.578 131.569V132.849C156.19 135.003 156.258 136.552 155.714 137.427C155.442 137.899 154.966 138.101 154.354 138.235C153.878 138.303 153.47 138.235 153.198 137.966C152.79 137.562 152.586 136.821 152.586 135.744C152.586 133.859 152.382 132.108 152.246 130.223C152.178 129.819 152.178 129.415 152.11 129.011L151.702 129.078C151.77 129.482 151.77 129.886 151.838 130.29C152.042 132.175 152.178 133.926 152.178 135.811C152.178 137.091 152.45 137.899 152.926 138.37C153.198 138.639 153.606 138.774 154.082 138.774C154.218 138.774 154.286 138.774 154.422 138.774C155.17 138.707 155.714 138.37 156.054 137.831C156.734 136.485 156.53 134.532 155.578 131.569Z" fill="#222930"/>
<path d="M155.578 134.734V135.407C156.122 136.283 156.19 137.158 155.85 137.899C155.442 138.707 154.558 139.178 153.47 139.111C151.566 139.043 151.294 137.293 151.294 135.542C151.294 133.724 151.158 132.579 151.022 131.098C150.954 130.694 150.954 130.021 150.886 129.549L150.546 129.751C150.614 130.29 150.614 130.694 150.682 131.165C150.818 132.647 150.954 133.791 150.954 135.542C150.954 136.687 150.954 139.38 153.47 139.447C153.538 139.447 153.538 139.447 153.606 139.447C154.762 139.447 155.782 138.909 156.19 138.033C156.666 137.091 156.462 135.879 155.578 134.734Z" fill="#222930"/>
<path d="M149.866 128.405C149.866 128.337 149.866 128.337 149.866 128.337L150.138 126.654L150.002 126.587L149.73 128.27C149.73 128.337 149.73 128.405 149.73 128.472C149.798 128.539 149.866 128.607 149.934 128.607L150.546 128.943V128.809C150.546 128.741 149.866 128.405 149.866 128.405Z" fill="#ADC5C9"/>
<path d="M150.41 127.597C150.41 127.529 150.342 127.395 150.274 127.327C150.274 127.327 150.206 127.193 150.138 127.193C150.138 127.193 150.206 127.799 149.934 128.135C149.934 128.135 149.934 128.203 150.002 128.203C150.206 128.135 150.41 127.933 150.478 127.799C150.478 127.799 150.478 127.731 150.41 127.597Z" fill="#BA1915"/>
<path d="M149.322 124.836L150.342 127.866C150.342 127.933 150.342 127.933 150.342 128.001V129.886C150.342 129.953 150.41 130.021 150.478 129.953L150.818 129.684C150.886 129.684 150.886 129.617 150.886 129.549V128.135C150.886 128.001 150.886 127.933 150.818 127.799L149.526 124.701C149.458 124.634 149.254 124.701 149.322 124.836Z" fill="#33484D"/>
<path d="M149.458 124.701C149.39 124.701 149.39 124.701 149.458 124.701L150.682 128.001V128.068V129.751L150.818 129.684V128.068C150.818 128.001 150.818 128.001 150.818 127.933L149.458 124.701Z" fill="#33484D"/>
<path d="M151.09 127.731C151.09 127.664 151.09 127.664 151.09 127.664L151.362 125.981L151.226 125.913L150.954 127.597C150.954 127.664 150.954 127.731 150.954 127.799C150.954 127.866 151.09 127.933 151.158 127.933L151.77 128.27V128.135C151.77 128.135 151.09 127.799 151.09 127.731Z" fill="#ADC5C9"/>
<path d="M151.702 126.991C151.702 126.923 151.634 126.789 151.566 126.721C151.566 126.721 151.498 126.587 151.43 126.587C151.43 126.587 151.498 127.193 151.226 127.529C151.226 127.529 151.226 127.597 151.294 127.597C151.498 127.529 151.702 127.327 151.77 127.193C151.77 127.193 151.702 127.125 151.702 126.991Z" fill="#BA1915"/>
<path d="M150.614 124.23L151.634 127.26C151.634 127.327 151.634 127.327 151.634 127.395V129.28C151.634 129.347 151.702 129.415 151.77 129.347L152.11 129.078C152.178 129.078 152.178 129.011 152.178 128.943V127.529C152.178 127.395 152.178 127.327 152.11 127.193L150.818 124.095C150.75 124.028 150.546 124.095 150.614 124.23Z" fill="#33484D"/>
<path d="M150.682 124.095L151.906 127.395V127.462V129.145L152.042 129.078V127.462C152.042 127.395 152.042 127.395 152.042 127.327L150.682 124.095Z" fill="#33484D"/>
<path d="M161.562 80.396L161.766 136.35L157.754 138.639L157.618 108.743C157.618 105.848 155.51 104.703 152.994 106.117L148.234 108.811C145.718 110.292 143.61 113.793 143.61 116.689L143.746 146.585L139.802 148.874L139.598 92.92L161.562 80.396Z" fill="#DDCA9B"/>
<path d="M139.802 148.941L143.746 146.652L143.61 118.507L139.666 120.729L139.802 148.941Z" fill="#769353"/>
<path d="M157.686 138.639L161.766 136.35L161.63 108.205L157.618 110.494L157.686 138.639Z" fill="#769353"/>
<path d="M135.11 146.248L139.802 148.941L139.666 120.729L135.042 118.103L135.11 146.248Z" fill="#3D655D"/>
<path d="M165.914 2.35667V0L253.022 49.8267L249.35 50.0287L165.914 2.35667Z" fill="#A58641"/>
<path d="M152.382 38.3126V39.996L119.878 58.7146V57.0313L152.382 38.3126Z" fill="#769353"/>
<path d="M189.918 59.7246V61.4753L152.382 39.996V38.3126L189.918 59.7246Z" fill="#3D655D"/>
<path d="M152.45 38.3126L152.382 40.6693L123.55 57.2333V54.944L152.45 38.3126Z" fill="#778189"/>
<path d="M152.382 34.744V36.4274L119.878 55.146V53.4627L152.382 34.744Z" fill="#778189"/>
<path d="M186.246 57.6373V59.994L152.382 40.6693L152.45 38.3126L186.246 57.6373Z" fill="#4D555B"/>
<path d="M189.918 56.2234V57.9067L152.382 36.4274V34.744L189.918 56.2234Z" fill="#4D555B"/>
<path d="M60.4457 63.024L56.7737 62.7547L165.914 0V2.35667L60.4457 63.024Z" fill="#A58641"/>
<path d="M152.382 36.4274L152.45 38.3127L123.55 54.944L119.878 55.146L152.382 36.4274Z" fill="#849199"/>
<path d="M189.918 57.9067L186.246 57.6374L152.45 38.3127L152.382 36.4274L189.918 57.9067Z" fill="#5F6A70"/>
<path d="M157.414 76.6253V74.2687L186.246 57.6373L189.918 57.9067L157.414 76.6253Z" fill="#5F6A70"/>
<path d="M119.878 55.1461L123.55 54.9441L157.414 74.2688V76.6254L119.878 55.1461Z" fill="#849199"/>
<path opacity="0.6" d="M154.422 37.3026L121.918 56.0213L159.454 77.5006L191.958 58.7146L154.422 37.3026Z" fill="#83D3F2"/>
<path d="M249.35 51.9141V53.5974L143.882 114.265V112.581L249.35 51.9141Z" fill="#769353"/>
<path d="M143.882 112.581V114.265L60.4458 66.5927V64.842L143.882 112.581Z" fill="#3D655D"/>
<path d="M249.35 48.3453V50.0287L143.882 110.696L143.95 109.013L249.35 48.3453Z" fill="#769353"/>
<path d="M143.95 109.013L143.882 110.696L60.4458 63.024L60.5138 61.3407L143.95 109.013Z" fill="#3D655D"/>
<path d="M249.35 50.0287L253.022 49.8267L143.95 112.581L143.882 110.696L249.35 50.0287Z" fill="#A58641"/>
<path d="M143.882 110.696L143.95 112.581L56.7737 62.7546L60.4457 63.024L143.882 110.696Z" fill="#A58641"/>
<path d="M253.022 49.8267V52.116L143.95 114.938V112.581L253.022 49.8267Z" fill="#769353"/>
<path d="M143.95 112.581V114.938L56.7737 65.1113V62.7546L143.95 112.581Z" fill="#3D655D"/>
<path d="M165.914 0.67334L249.35 48.3453L143.95 109.013L60.5137 61.3407L165.914 0.67334ZM157.414 74.942L189.918 56.2233L152.382 34.744L119.878 53.4627L157.414 74.942Z" fill="#6D7781"/>
<path opacity="0.2" d="M114.302 41.2754L122.734 46.1234L118.518 48.5474L114.302 46.1234L106.074 50.8367L110.29 53.2607L106.074 55.6847L101.858 53.2607L97.5736 55.6847L93.4256 53.2607H93.3576L89.1416 50.8367L93.4256 48.4127L97.5736 50.8367L101.722 48.4801L97.5056 46.0561L105.87 41.2754L110.086 43.6994L114.302 41.2754Z" fill="#6D7781"/>
<path opacity="0.2" d="M125.794 71.3734L121.578 73.7301L129.942 78.5108L134.158 76.0868L138.238 78.4434L134.09 80.8674L138.306 83.2914L142.522 80.8674L146.738 78.4434L142.522 76.0194L146.738 73.6628L142.522 71.2388L138.238 73.6628L130.01 68.9494L134.226 66.5254L130.01 64.1014L121.578 68.9494L125.794 71.3734Z" fill="#6D7781"/>
<path opacity="0.2" d="M203.926 48.1434L208.074 45.7194L199.778 40.9388L195.562 43.3628L191.414 41.0061L195.63 38.5821L191.414 36.1581L187.198 38.5821H187.13L182.982 41.0061L187.198 43.4301L182.982 45.8541L187.198 48.2781L191.414 45.8541L199.642 50.5674L195.426 52.9914L199.642 55.4154L208.142 50.5674L203.926 48.1434Z" fill="#6D7781"/>
<path opacity="0.2" d="M142.658 19.7961L146.806 22.1527L138.442 26.9334L146.942 31.7814L151.158 29.3574L146.942 26.9334L155.306 22.1527L151.09 19.7961V19.7287L146.874 17.3721L142.658 19.7961Z" fill="#6D7781"/>
<path opacity="0.2" d="M133.342 96.7581L137.49 94.3341L145.922 99.1148L154.354 94.2668L150.138 91.8428L145.922 94.2668L137.49 89.4861L133.342 91.9101H133.274L129.058 94.3341L133.342 96.7581Z" fill="#6D7781"/>
<path opacity="0.2" d="M184.274 63.0241L188.422 65.3808L180.058 70.1614L188.558 75.0094L192.774 72.5854L188.558 70.1614L196.922 65.3808L192.706 63.0241V62.9568L188.49 60.6001L184.274 63.0241Z" fill="#6D7781"/>
<path opacity="0.2" d="M168.158 37.5721L172.374 35.1481L168.158 32.7241L163.874 35.1481L168.158 37.5721Z" fill="#6D7781"/>
<path opacity="0.2" d="M172.306 25.5194L180.738 30.3674L176.522 32.7914L168.09 27.9434L172.306 25.5194Z" fill="#6D7781"/>
<path opacity="0.2" d="M92.0657 69.6227L96.2817 71.9794L100.498 69.6227L96.2817 67.1987L92.0657 69.6227Z" fill="#6D7781"/>
<path opacity="0.2" d="M113.146 71.9794L104.714 76.8274L100.43 74.4034L108.862 69.5554L113.146 71.9794Z" fill="#6D7781"/>
<path opacity="0.2" d="M220.042 47.0661L224.326 49.4901L228.542 47.0661L224.326 44.6421L220.042 47.0661Z" fill="#6D7781"/>
<path opacity="0.2" d="M165.778 16.2947L169.994 18.7187L174.278 16.2947L169.994 13.8707L165.778 16.2947Z" fill="#6D7781"/>
<path d="M165.914 4.03997L246.29 50.0286C246.766 49.7593 247.242 49.4226 247.65 49.086L165.914 2.28931L62.4177 61.812C62.8937 62.1486 63.3697 62.418 63.8457 62.6873L165.914 4.03997Z" fill="#769353"/>
<path opacity="0.7" d="M165.914 2.28931V4.03997L246.29 50.0286C246.766 49.7593 247.242 49.4226 247.65 49.086L165.914 2.28931Z" fill="#3D655D"/>
<path d="M165.914 0.67334L60.5137 61.3407L143.95 109.013L249.35 48.3453L165.914 0.67334ZM143.95 107.329L63.5057 61.3407L165.914 2.35667L246.358 48.3453L143.95 107.329Z" fill="#D3BD88"/>
<path opacity="0.3" d="M213.922 64.6401L209.638 62.2161L206.306 64.1687L204.946 62.6201L199.71 62.8221L197.806 64.1687L200.662 67.4007L199.982 67.8047L196.854 67.9394C196.446 67.9394 196.106 68.0067 195.698 68.1414C195.154 68.2761 194.61 68.4781 194.134 68.8147C193.59 69.0841 193.182 69.4207 192.842 69.7574C192.502 70.0941 192.23 70.4307 192.094 70.8347C192.026 70.9694 192.026 71.1041 191.958 71.2387L190.054 71.3061C189.918 71.3734 189.782 71.3734 189.578 71.4407C189.374 71.5081 189.238 71.5754 189.102 71.6427C188.966 71.7101 188.762 71.7774 188.626 71.8447C188.49 71.9121 188.354 71.9794 188.218 72.0467C187.606 72.3834 187.062 72.7201 186.654 73.0567C186.178 73.3934 185.838 73.7301 185.566 73.9994L186.11 74.6054L183.73 74.6727H183.662L180.126 74.8074L178.222 76.1541L180.602 78.7801L176.794 78.9147C175.978 78.9147 175.094 79.2514 174.142 79.7227C173.734 79.9921 173.326 80.2614 172.986 80.5981C172.646 80.9347 172.374 81.2714 172.238 81.6081C172.238 81.6754 172.238 81.7427 172.17 81.7427L168.226 81.8774C168.09 81.8774 167.954 81.8774 167.818 81.9447C166.798 82.0794 165.574 82.5507 164.146 83.3587C163.738 83.5607 163.33 83.8301 162.786 84.1667C162.31 84.5034 161.494 85.0421 161.086 85.3787L165.03 87.6007L158.638 91.2367L160.474 95.2767C160.61 95.6134 161.086 95.7481 161.426 95.5461L213.786 65.5827C214.33 65.4481 214.33 64.9094 213.922 64.6401Z" fill="#6D7781"/>
<defs>
<linearGradient id="paint0_linear_772_2224" x1="222.248" y1="134.201" x2="220.186" y2="141.463" gradientUnits="userSpaceOnUse">
<stop stop-color="#323232"/>
<stop offset="0.2571" stop-color="#201F1D"/>
<stop offset="1" stop-color="#12100C"/>
</linearGradient>
<linearGradient id="paint1_linear_772_2224" x1="251.153" y1="117.745" x2="249.092" y2="125.007" gradientUnits="userSpaceOnUse">
<stop stop-color="#323232"/>
<stop offset="0.2571" stop-color="#201F1D"/>
<stop offset="1" stop-color="#12100C"/>
</linearGradient>
<linearGradient id="paint2_linear_772_2224" x1="232.177" y1="119.398" x2="237.106" y2="129.85" gradientUnits="userSpaceOnUse">
<stop stop-color="#FFC284"/>
<stop offset="1" stop-color="#DD9143"/>
</linearGradient>
<linearGradient id="paint3_linear_772_2224" x1="230.264" y1="124.714" x2="229.588" y2="126.981" gradientUnits="userSpaceOnUse">
<stop stop-color="#FFC284"/>
<stop offset="1" stop-color="#DD9143"/>
</linearGradient>
</defs>
</svg>
