<svg width="24" height="24" viewBox="0 0 24 24" fill="none" xmlns="http://www.w3.org/2000/svg">
<path d="M19.5 12.1833C19.5 11.6666 19.45 11.1333 19.3666 10.6333H12.1499V13.5833H16.2833C16.1166 14.5333 15.5666 15.3667 14.7499 15.9L17.2166 17.8167C18.6666 16.4667 19.5 14.5 19.5 12.1833Z" fill="#4280EF"/>
<path d="M12.1498 19.6501C14.2165 19.6501 15.9499 18.9667 17.2165 17.8001L14.7498 15.9C14.0665 16.3667 13.1832 16.6334 12.1498 16.6334C10.1498 16.6334 8.46644 15.2834 7.84977 13.4833L5.31641 15.4334C6.61642 18.0167 9.24978 19.6501 12.1498 19.6501Z" fill="#34A353"/>
<path d="M7.84978 13.4667C7.53311 12.5167 7.53311 11.4833 7.84978 10.5333L5.31642 8.56665C4.23307 10.7333 4.23307 13.2834 5.31642 15.4334L7.84978 13.4667Z" fill="#F6B704"/>
<path d="M12.1498 7.38327C13.2332 7.3666 14.2998 7.78327 15.0832 8.53328L17.2665 6.33326C15.8832 5.03324 14.0498 4.33323 12.1498 4.3499C9.24978 4.3499 6.61642 5.98325 5.31641 8.56661L7.84977 10.5333C8.46644 8.71661 10.1498 7.38327 12.1498 7.38327Z" fill="#E54335"/>
</svg>
