<svg width="38" height="65" viewBox="0 0 38 65" fill="none" xmlns="http://www.w3.org/2000/svg">
<path d="M35.2635 59.3165L4.92578 47.9346V1.77322C4.9259 1.48663 4.99545 1.2044 5.12848 0.950557C5.26151 0.696712 5.45407 0.478828 5.68966 0.31564C5.92526 0.152453 6.19687 0.0488165 6.48128 0.0135152C6.76569 -0.0217861 7.05442 0.0123103 7.32276 0.112949L35.4283 10.6568C36.0648 10.8956 36.6133 11.3231 37.0004 11.882C37.3875 12.4408 37.5948 13.1045 37.5945 13.7844V57.7009C37.5947 57.9797 37.5273 58.2545 37.3981 58.5016C37.2688 58.7487 37.0816 58.9607 36.8524 59.1196C36.6232 59.2784 36.3589 59.3793 36.0822 59.4136C35.8055 59.4479 35.5245 59.4146 35.2635 59.3165Z" fill="url(#paint0_linear_906_78)"/>
<path d="M33.3859 61.7683L2.12988 50.0431V2.48358C2.1297 2.18817 2.20112 1.89705 2.33805 1.63528C2.47499 1.37351 2.67334 1.14886 2.91611 0.980535C3.15888 0.812209 3.43884 0.705287 3.732 0.668849C4.02516 0.63241 4.32279 0.667556 4.59938 0.771328L33.556 11.635C34.2116 11.881 34.7765 12.3212 35.1753 12.8967C35.5742 13.4723 35.7879 14.1558 35.7879 14.856V60.105C35.788 60.3923 35.7184 60.6752 35.5852 60.9297C35.4519 61.1841 35.2589 61.4025 35.0227 61.5661C34.7866 61.7296 34.5143 61.8334 34.2292 61.8686C33.9441 61.9039 33.6547 61.8695 33.3859 61.7683Z" fill="url(#paint1_linear_906_78)"/>
<path d="M33.6573 24.8176V63.3845C33.6572 63.5668 33.6129 63.7464 33.5283 63.9079C33.4436 64.0694 33.3212 64.208 33.1713 64.3119C33.0215 64.4157 32.8487 64.4818 32.6678 64.5044C32.4869 64.527 32.3031 64.5055 32.1323 64.4417L1.73138 53.0359C1.22267 52.8449 0.784351 52.5032 0.474975 52.0565C0.1656 51.6098 -0.00010435 51.0794 9.43865e-07 50.536V2.85663C-0.000247743 2.65399 0.0486495 2.45435 0.142494 2.27476C0.236339 2.09516 0.372331 1.94097 0.538821 1.82546C0.705311 1.70995 0.897334 1.63653 1.09842 1.61151C1.2995 1.58649 1.50365 1.61058 1.69337 1.68177L22.3467 9.42704L22.9683 9.6616C23.8645 9.99774 24.6397 10.5942 25.1944 11.3743L32.755 21.9894C33.3425 22.8154 33.6579 23.804 33.6573 24.8176Z" fill="url(#paint2_linear_906_78)"/>
<path d="M33.6574 24.8175V27.5552C33.6574 27.5552 33.5937 25.3373 30.6432 24.1757C28.5501 23.3498 25.251 22.1289 23.5099 21.4889C23.1681 21.3633 22.8732 21.1358 22.6651 20.837C22.4569 20.5383 22.3456 20.1827 22.3462 19.8186V9.42892L22.9677 9.66348C23.8639 9.99962 24.6392 10.596 25.1938 11.3761L32.7545 21.9912C33.3418 22.8166 33.6574 23.8045 33.6574 24.8175Z" fill="url(#paint3_linear_906_78)"/>
<path d="M5.64728 10.811L13.1878 13.7978C13.4366 13.8952 13.6502 14.0657 13.8004 14.2868C13.9505 14.5079 14.0302 14.7693 14.029 15.0366V26.4603C14.0285 26.5782 13.9995 26.6943 13.9445 26.7987C13.8895 26.903 13.8101 26.9925 13.713 27.0595C13.6159 27.1265 13.5041 27.1691 13.387 27.1836C13.27 27.1981 13.1512 27.184 13.0407 27.1427L5.50093 24.1556C5.25198 24.0583 5.03835 23.8879 4.88817 23.6668C4.738 23.4457 4.65833 23.1843 4.65968 22.9171V11.4937C4.65997 11.3758 4.68881 11.2597 4.74371 11.1553C4.79862 11.0509 4.87798 10.9613 4.97501 10.8942C5.07204 10.8272 5.18387 10.7846 5.30093 10.7701C5.418 10.7556 5.53683 10.7696 5.64728 10.811Z" fill="url(#paint4_linear_906_78)"/>
<path d="M13.6416 13.1184L6.57546 10.3201C6.48417 10.2845 6.38615 10.2695 6.28838 10.276C6.19062 10.2826 6.0955 10.3106 6.00979 10.3581L4.3418 11.4169L5.30996 11.973L5.69635 11.7699L5.64964 21.6651C5.64848 21.9155 5.72314 22.1604 5.8638 22.3675C6.00446 22.5746 6.20452 22.7343 6.43767 22.8255L12.5653 25.3136L11.9851 25.521L12.3724 26.6709L13.9895 25.6239C14.3071 25.4632 14.4301 25.2832 14.4301 24.9856V14.2808C14.4315 14.0301 14.357 13.7847 14.2162 13.5772C14.0755 13.3697 13.8751 13.2098 13.6416 13.1184Z" fill="url(#paint5_linear_906_78)"/>
<path d="M5.02797 11.3249L12.0934 14.1242C12.3268 14.2152 12.527 14.3748 12.6677 14.582C12.8084 14.7891 12.8829 15.0342 12.8815 15.2846V25.9895C12.8813 26.1001 12.8543 26.209 12.8028 26.307C12.7514 26.4049 12.677 26.4889 12.586 26.5519C12.495 26.6148 12.3902 26.6548 12.2804 26.6685C12.1706 26.6821 12.0591 26.669 11.9555 26.6301L4.89003 23.8308C4.65664 23.7399 4.45633 23.5803 4.31555 23.3731C4.17478 23.166 4.10017 22.9209 4.10158 22.6704V11.9663C4.10171 11.8556 4.12864 11.7465 4.18009 11.6485C4.23153 11.5504 4.30595 11.4663 4.39699 11.4033C4.48802 11.3402 4.59297 11.3002 4.70285 11.2866C4.81273 11.2729 4.92428 11.286 5.02797 11.3249Z" fill="url(#paint6_linear_906_78)"/>
<path d="M26.8408 28.0584C26.7695 28.0582 26.699 28.0448 26.6326 28.0189L18.5994 24.8832C18.4585 24.8274 18.3455 24.7181 18.285 24.5792C18.2245 24.4403 18.2214 24.283 18.2765 24.1418C18.3316 24.0006 18.4404 23.887 18.579 23.8258C18.7176 23.7646 18.8748 23.7607 19.0163 23.815L27.0495 26.9504C27.174 26.9991 27.2777 27.0897 27.3425 27.2067C27.4073 27.3236 27.4293 27.4595 27.4045 27.591C27.3798 27.7224 27.3099 27.841 27.2069 27.9264C27.104 28.0117 26.9745 28.0584 26.8408 28.0584Z" fill="url(#paint7_linear_906_78)"/>
<path d="M22.7927 31.4672C22.718 31.4668 22.6441 31.4521 22.5751 31.4237L18.5893 29.7789C18.5179 29.7516 18.4527 29.7102 18.3975 29.6572C18.3423 29.6043 18.2982 29.5408 18.268 29.4706C18.2377 29.4003 18.2218 29.3247 18.2212 29.2482C18.2206 29.1718 18.2354 29.0959 18.2645 29.0252C18.2937 28.9545 18.3368 28.8904 18.3911 28.8366C18.4455 28.7828 18.5101 28.7404 18.5811 28.712C18.6521 28.6835 18.728 28.6696 18.8045 28.671C18.881 28.6724 18.9564 28.6891 19.0263 28.7201L23.0123 30.3634C23.1349 30.4142 23.2361 30.5059 23.2988 30.623C23.3614 30.74 23.3815 30.8751 23.3557 31.0053C23.3298 31.1355 23.2597 31.2528 23.1571 31.3371C23.0546 31.4213 22.926 31.4675 22.7932 31.4676L22.7927 31.4672Z" fill="url(#paint8_linear_906_78)"/>
<path d="M27.6927 57.0301C27.6176 57.0303 27.5432 57.0152 27.4741 56.9858L23.4886 55.3426C23.4179 55.3146 23.3535 55.2729 23.2991 55.2198C23.2446 55.1668 23.2013 55.1034 23.1716 55.0334C23.1419 54.9635 23.1264 54.8883 23.126 54.8123C23.1256 54.7363 23.1403 54.661 23.1693 54.5907C23.1983 54.5205 23.2409 54.4566 23.2948 54.403C23.3487 54.3493 23.4127 54.307 23.483 54.2783C23.5534 54.2497 23.6288 54.2352 23.7048 54.236C23.7808 54.2367 23.856 54.2526 23.9258 54.2826L27.9116 55.9268C28.0342 55.9774 28.1356 56.0691 28.1982 56.186C28.2609 56.303 28.281 56.4382 28.2552 56.5683C28.2294 56.6985 28.1592 56.8157 28.0566 56.8999C27.954 56.9841 27.8254 57.0301 27.6927 57.0301Z" fill="url(#paint9_linear_906_78)"/>
<path d="M22.367 36.5791C22.2962 36.5791 22.226 36.566 22.16 36.5402L14.5496 33.5926C14.4794 33.5654 14.4152 33.5246 14.3607 33.4726C14.3062 33.4206 14.2625 33.3583 14.232 33.2894C14.1705 33.1502 14.1669 32.9923 14.2218 32.8504C14.2768 32.7085 14.3858 32.5943 14.525 32.5328C14.6642 32.4713 14.8221 32.4677 14.964 32.5227L22.5743 35.4713C22.699 35.5197 22.8029 35.6101 22.8679 35.727C22.933 35.8439 22.9552 35.9798 22.9306 36.1113C22.906 36.2428 22.8362 36.3615 22.7332 36.4469C22.6303 36.5323 22.5008 36.5791 22.367 36.5791Z" fill="url(#paint10_linear_906_78)"/>
<path d="M11.8346 32.4994C11.7639 32.4993 11.6938 32.4862 11.6278 32.4607L5.81839 30.2096C5.67744 30.1542 5.56417 30.0452 5.50334 29.9064C5.44251 29.7677 5.43905 29.6106 5.49373 29.4693C5.5484 29.3281 5.65676 29.2142 5.79513 29.1526C5.9335 29.091 6.09063 29.0866 6.23219 29.1405L12.0414 31.3907C12.1662 31.4391 12.2701 31.5296 12.3352 31.6465C12.4003 31.7634 12.4224 31.8994 12.3979 32.0309C12.3734 32.1624 12.3036 32.2812 12.2008 32.3668C12.0979 32.4524 11.9684 32.4993 11.8346 32.4994Z" fill="url(#paint11_linear_906_78)"/>
<path d="M27.2672 44.2485C27.1958 44.2488 27.1251 44.2353 27.0589 44.2086L21.1063 41.8904C20.9652 41.8348 20.8519 41.7256 20.7911 41.5866C20.7304 41.4476 20.7272 41.2902 20.7823 41.1489C20.8373 41.0076 20.9461 40.8938 21.0848 40.8325C21.2236 40.7712 21.3809 40.7674 21.5225 40.8219L27.4749 43.1414C27.5994 43.1899 27.7031 43.2803 27.768 43.3971C27.8329 43.514 27.8549 43.6497 27.8303 43.7811C27.8056 43.9124 27.7359 44.0311 27.633 44.1164C27.5302 44.2018 27.4008 44.2485 27.2672 44.2485Z" fill="url(#paint12_linear_906_78)"/>
<path d="M19.2766 41.1357C19.2054 41.1359 19.1348 41.1226 19.0685 41.0966L10.8764 37.9056C10.7349 37.8504 10.6211 37.7412 10.56 37.6021C10.4989 37.4629 10.4957 37.3052 10.5509 37.1636C10.6061 37.0221 10.7153 36.9083 10.8544 36.8472C10.9936 36.7862 11.1513 36.7829 11.2929 36.8381L19.4849 40.0282C19.6094 40.0768 19.7131 40.1675 19.7779 40.2844C19.8428 40.4013 19.8648 40.5373 19.8401 40.6687C19.8154 40.8001 19.7456 40.9187 19.6427 41.0042C19.5398 41.0896 19.4103 41.1364 19.2766 41.1365V41.1357Z" fill="url(#paint13_linear_906_78)"/>
<path d="M8.69275 37.0255C8.62253 37.025 8.55294 37.0121 8.48723 36.9873L5.82004 35.9617C5.74979 35.9347 5.68554 35.8941 5.63097 35.8423C5.57641 35.7904 5.53259 35.7283 5.50203 35.6595C5.47146 35.5907 5.45474 35.5166 5.45282 35.4413C5.45091 35.3661 5.46383 35.2912 5.49086 35.2209C5.51789 35.1507 5.55849 35.0864 5.61035 35.0318C5.6622 34.9773 5.7243 34.9334 5.79309 34.9029C5.86188 34.8723 5.93602 34.8556 6.01127 34.8537C6.08652 34.8518 6.16141 34.8647 6.23167 34.8918L8.89871 35.9165C9.02372 35.9646 9.12796 36.055 9.19333 36.1719C9.25871 36.2888 9.2811 36.4249 9.25665 36.5566C9.23219 36.6883 9.16241 36.8073 9.05942 36.8929C8.95642 36.9785 8.82671 37.0255 8.69275 37.0255Z" fill="url(#paint14_linear_906_78)"/>
<defs>
<linearGradient id="paint0_linear_906_78" x1="21.2601" y1="-1.18853" x2="21.2601" y2="11.4099" gradientUnits="userSpaceOnUse">
<stop stop-color="#DCDBD9"/>
<stop offset="1" stop-color="#BABABA"/>
</linearGradient>
<linearGradient id="paint1_linear_906_78" x1="18.5887" y1="19.0843" x2="21.2465" y2="48.3666" gradientUnits="userSpaceOnUse">
<stop stop-color="#DCDBD9"/>
<stop offset="1" stop-color="#BABABA"/>
</linearGradient>
<linearGradient id="paint2_linear_906_78" x1="19.0501" y1="7.01228" x2="-0.872038" y2="73.508" gradientUnits="userSpaceOnUse">
<stop stop-color="#EEEDE8"/>
<stop offset="1" stop-color="#DCDBD9"/>
</linearGradient>
<linearGradient id="paint3_linear_906_78" x1="24.665" y1="20.9391" x2="30.7327" y2="19.2116" gradientUnits="userSpaceOnUse">
<stop stop-color="#DCDBD9"/>
<stop offset="1" stop-color="#BABABA"/>
</linearGradient>
<linearGradient id="paint4_linear_906_78" x1="13.2139" y1="-17.8635" x2="5.55843" y2="-7.27406" gradientUnits="userSpaceOnUse">
<stop stop-color="#D5D5D4"/>
<stop offset="1" stop-color="#BABABA"/>
</linearGradient>
<linearGradient id="paint5_linear_906_78" x1="9.38596" y1="7.27399" x2="9.38596" y2="13.4718" gradientUnits="userSpaceOnUse">
<stop stop-color="#EAB02B"/>
<stop offset="1" stop-color="#E8922D"/>
</linearGradient>
<linearGradient id="paint6_linear_906_78" x1="11.4591" y1="-15.2705" x2="-3.6737" y2="10.5106" gradientUnits="userSpaceOnUse">
<stop stop-color="#EAB02B"/>
<stop offset="1" stop-color="#E8922D"/>
</linearGradient>
<linearGradient id="paint7_linear_906_78" x1="27.4787" y1="28.2639" x2="21.1313" y2="13.5601" gradientUnits="userSpaceOnUse">
<stop stop-color="#9E9E9E"/>
<stop offset="1" stop-color="#B7B7B7"/>
</linearGradient>
<linearGradient id="paint8_linear_906_78" x1="25.4042" y1="32.3905" x2="16.511" y2="17.2265" gradientUnits="userSpaceOnUse">
<stop stop-color="#9E9E9E"/>
<stop offset="1" stop-color="#B7B7B7"/>
</linearGradient>
<linearGradient id="paint9_linear_906_78" x1="28.2919" y1="56.7172" x2="23.574" y2="50.0497" gradientUnits="userSpaceOnUse">
<stop stop-color="#9E9E9E"/>
<stop offset="1" stop-color="#B7B7B7"/>
</linearGradient>
<linearGradient id="paint10_linear_906_78" x1="23.1505" y1="36.8452" x2="16.768" y2="22.126" gradientUnits="userSpaceOnUse">
<stop stop-color="#9E9E9E"/>
<stop offset="1" stop-color="#B7B7B7"/>
</linearGradient>
<linearGradient id="paint11_linear_906_78" x1="22.6905" y1="37.7401" x2="15.6489" y2="22.8578" gradientUnits="userSpaceOnUse">
<stop stop-color="#9E9E9E"/>
<stop offset="1" stop-color="#B7B7B7"/>
</linearGradient>
<linearGradient id="paint12_linear_906_78" x1="30.3453" y1="44.6088" x2="16.3332" y2="24.2734" gradientUnits="userSpaceOnUse">
<stop stop-color="#33454F"/>
<stop offset="1" stop-color="#29383F"/>
</linearGradient>
<linearGradient id="paint13_linear_906_78" x1="30.4675" y1="44.2551" x2="17.8449" y2="24.0225" gradientUnits="userSpaceOnUse">
<stop stop-color="#33454F"/>
<stop offset="1" stop-color="#29383F"/>
</linearGradient>
<linearGradient id="paint14_linear_906_78" x1="30.5617" y1="43.967" x2="12.0024" y2="24.1715" gradientUnits="userSpaceOnUse">
<stop stop-color="#33454F"/>
<stop offset="1" stop-color="#29383F"/>
</linearGradient>
</defs>
</svg>
