<svg width="65" height="58" viewBox="0 0 65 58" fill="none" xmlns="http://www.w3.org/2000/svg">
<path d="M64.8487 1.27721C64.8487 0.842406 64.3537 0.298896 63.9824 0.0814949C63.7349 -0.0272057 63.4874 -0.0272057 63.3636 0.0814949L56.9282 3.45122L58.2896 5.08173L64.725 1.712C64.8487 1.712 64.9725 1.49461 64.8487 1.27721Z" fill="#EBC78C"/>
<path d="M58.5371 4.64694C58.5371 5.08174 58.1658 5.29913 57.7945 5.08173C57.4233 4.86433 56.9282 4.32082 56.9282 3.88602C56.9282 3.45122 57.2995 3.23382 57.6708 3.45122C58.042 3.66863 58.4133 4.21214 58.5371 4.64694Z" fill="#262424"/>
<path d="M58.9088 4.53823C58.9088 3.99472 58.29 3.23382 57.795 3.01642C57.5474 2.90772 57.1762 2.90772 57.0524 3.01642L56.6812 3.23381L58.4138 5.40782L58.785 5.19044C58.785 5.08173 58.9088 4.86433 58.9088 4.53823Z" fill="#F2E4E4"/>
<path d="M58.5375 4.75563C58.5375 5.29913 58.1662 5.62524 57.5474 5.29913C56.9286 5.08173 56.4336 4.32084 56.4336 3.77733C56.4336 3.23383 56.8049 2.90773 57.4236 3.23383C57.9187 3.45123 58.5375 4.10343 58.5375 4.75563Z" fill="#CCC0C0"/>
<path d="M58.1659 4.53824C58.1659 4.64694 58.1659 4.75563 58.0422 4.86433C58.0422 4.86433 58.0422 4.86433 57.9184 4.86433L53.4631 7.90797L52.8444 8.34276C52.5968 8.45146 52.3493 8.45146 51.978 8.34276C51.2355 8.01666 50.7405 7.25575 50.6167 6.60355V6.49484C50.6167 6.16874 50.7405 5.95133 50.988 5.84263L56.9283 3.55994H57.0521C57.1759 3.55994 57.2996 3.55992 57.4234 3.66862C57.4234 3.66862 57.5471 3.66862 57.5471 3.77733C57.7946 3.88603 58.0422 4.32084 58.1659 4.53824Z" fill="#CEED82"/>
<path d="M58.1658 4.53824C58.1658 4.64694 58.1658 4.75563 58.0421 4.86433C58.0421 4.86433 58.0421 4.86433 57.9183 4.86433L53.4631 7.90797C52.968 7.90797 52.473 7.90796 51.978 7.79926C51.8542 7.79926 51.7305 7.69055 51.7305 7.69055C51.7305 7.58185 51.8542 7.58184 51.8542 7.47314C53.463 6.38613 55.8145 6.06004 57.1758 4.86433C57.4233 4.64693 57.6708 3.99472 57.4233 3.66862C57.7946 3.88602 58.0421 4.32084 58.1658 4.53824Z" fill="#BAD473"/>
<path d="M36.3848 17.5823L28.2168 20.7346L21.9052 18.6693L7.54932 15.1909L19.8013 8.56013C20.9151 7.90793 22.4002 7.90794 24.2566 8.66884L36.3848 17.5823Z" fill="#CEED82"/>
<path d="M28.2168 36.931L11.8807 28.3437C8.41554 26.1696 5.69287 22.039 5.69287 18.6693C5.69287 17.0388 6.31165 15.8431 7.42547 15.1909C8.53929 14.5387 10.0244 14.5387 11.8807 15.2996L28.2168 20.7346C28.2168 20.7346 19.43 26.1696 28.2168 36.931Z" fill="#BAD473"/>
<path d="M40.7162 30.5177L28.2167 36.931C24.7515 33.0178 22.1526 27.4741 25.7415 22.9086C28.0929 19.9737 31.5581 17.691 35.5184 17.3649C35.7659 17.3649 36.1371 17.3649 36.3846 17.5823C37.0034 18.2345 36.7559 20.1911 36.7559 20.952C36.7559 22.2565 36.6322 23.4522 37.0034 24.7566C37.8697 26.9306 39.2311 28.7785 40.7162 30.5177Z" fill="#ABC95B"/>
<path d="M39.6025 42.0399L28.2168 35.9527L40.2213 29.7568L49.9981 34.9744L39.6025 42.0399Z" fill="#CEED82"/>
<path d="M18.4401 31.6047C18.4401 27.8002 15.3462 23.2347 11.6335 21.2781C9.7771 20.2998 8.0445 20.1911 6.80692 20.8433L4.20801 22.0391L13.9849 36.4962L16.3363 35.4092C17.6976 34.8657 18.4401 33.5613 18.4401 31.6047Z" fill="#413D3D"/>
<path d="M16.0884 32.6917C16.0884 36.4962 12.9945 38.018 9.28176 36.0614C5.56904 34.1048 2.4751 29.5394 2.4751 25.7348C2.4751 21.9303 5.56904 20.4085 9.28176 22.3651C13.1182 24.213 16.0884 28.8872 16.0884 32.6917Z" fill="#262424"/>
<path d="M13.366 31.9308C13.366 32.583 13.2422 33.9961 11.7571 33.9961C11.2621 33.9961 10.6433 33.7787 10.0245 33.5613C7.42564 32.2569 5.32178 28.9959 5.32178 26.3871C5.32178 25.7349 5.44552 24.3217 6.93061 24.3217C7.42564 24.3217 8.04442 24.5392 8.66321 24.7566C8.78697 24.7566 8.78698 24.8652 8.91074 24.8652C9.15825 24.9739 9.40575 25.1913 9.77702 25.4087C9.90078 25.5174 10.0246 25.6262 10.1483 25.7349C11.3859 26.8219 12.4997 28.3437 12.9947 29.8655C13.1185 30.3003 13.2423 30.7351 13.366 31.0612C13.2423 31.496 13.366 31.7134 13.366 31.9308Z" fill="#EBC78C"/>
<path d="M12.6235 33.5613C12.1284 33.5613 11.5097 33.3439 10.8909 33.1265C8.29196 31.8221 6.18806 28.5611 6.18806 25.9522C6.18806 25.5174 6.18808 24.8652 6.55935 24.4304C5.44553 24.6478 5.32178 25.9522 5.32178 26.4957C5.32178 29.1046 7.42564 32.3656 10.0245 33.67C10.6433 33.9961 11.2621 34.1048 11.7571 34.1048C12.3759 34.1048 12.6234 33.8874 12.871 33.5613C12.871 33.5613 12.7472 33.5613 12.6235 33.5613Z" fill="#D7B680"/>
<path d="M13.2419 31.1699C13.1182 31.3873 12.9944 31.496 12.7469 31.6047L12.0044 31.9308L7.67285 25.5174C7.67285 25.5174 7.79659 25.4087 7.92034 25.4087L8.4154 25.1913C8.53916 25.0826 8.6629 25.0826 8.78666 25.0826C9.03418 25.1913 9.28171 25.4087 9.65298 25.6261C9.77674 25.7348 9.90048 25.8435 10.0242 25.9522C11.2618 27.0392 12.3756 28.5611 12.8706 30.0829C13.1182 30.409 13.2419 30.8438 13.2419 31.1699Z" fill="#E6D9D9"/>
<path d="M12.9948 30.1916C12.9948 31.0612 12.6235 31.6047 12.1285 31.9308C11.6335 32.1482 10.7671 32.1482 10.0246 31.7134C8.292 30.8438 6.93066 28.7785 6.93066 27.1479C6.93066 26.387 7.17819 25.7348 7.67322 25.5174C7.67322 25.5174 7.79695 25.4087 7.92071 25.4087C8.41574 25.1913 9.03456 25.3 9.65334 25.5174C9.7771 25.6261 9.90084 25.7349 10.0246 25.8436C11.2622 26.9306 12.376 28.4524 12.871 29.9742C12.9948 30.0829 12.9948 30.0829 12.9948 30.1916Z" fill="#DBCECE"/>
<path d="M10.8905 29.2133C10.8905 28.6698 10.5192 28.0176 9.90043 27.8002C9.65292 27.6915 9.4054 27.6915 9.28164 27.6915L8.78662 27.9089L10.148 29.8655L10.643 29.6481C10.7667 29.6481 10.8905 29.5394 10.8905 29.2133Z" fill="#A69C9C"/>
<path d="M10.3956 29.4307C10.3956 29.9742 10.0244 30.1916 9.40557 29.8655C8.91054 29.6481 8.41553 28.9959 8.41553 28.4524C8.41553 27.9089 8.78678 27.6915 9.40557 28.0176C9.9006 28.3437 10.3956 28.9959 10.3956 29.4307Z" fill="#CCC0C0"/>
<path d="M21.1625 30.1916C21.0388 30.5177 20.915 30.8438 20.7913 31.1699C20.6675 31.2786 20.6675 31.3873 20.5438 31.496C19.4299 32.4743 16.831 32.4743 15.4697 32.3656C14.7271 32.3656 13.8609 32.1482 13.1183 32.0395C12.9945 32.0395 12.747 31.9308 12.6233 31.9308C12.6233 31.9308 12.6233 31.9308 12.4995 31.9308C12.3758 31.9308 12.252 31.8221 12.0045 31.8221C11.8807 31.8221 11.757 31.7134 11.6332 31.7134H11.5095C11.3857 31.7134 11.2619 31.6047 11.2619 31.6047C11.1382 31.6047 11.0144 31.496 10.8907 31.3873C9.65311 30.8438 8.53927 29.7568 7.42545 28.9959C6.68291 28.4524 5.94037 28.0176 5.07407 27.5828C3.46522 26.9305 1.98014 27.5828 0.866318 26.061C0.371288 25.3 0 24.4304 0 23.4521V22.9086C0 20.8433 0.61878 19.2128 1.7326 18.2345C3.09393 17.1475 4.82656 16.2779 6.43541 15.6257C7.05419 15.4083 7.67299 15.0822 8.41553 15.0822C9.28184 15.0822 10.0244 15.0822 10.8907 15.2996C15.0984 16.2779 18.3161 19.1041 20.0487 22.5826C20.6675 23.887 21.1626 25.4088 21.2863 26.8219C21.2863 27.2567 21.4101 27.5828 21.4101 28.0176C21.4101 28.6698 21.4101 29.4307 21.1625 30.1916Z" fill="#CEED82"/>
<path d="M21.1626 30.1916C21.0388 30.5177 20.9151 30.8438 20.7913 31.0612C20.6676 31.1699 20.6675 31.2786 20.5438 31.3873C19.3062 32.1482 16.9548 32.1482 15.7172 32.0395C14.9747 32.0395 14.1084 31.8221 13.3659 31.7134C13.2421 31.7134 12.9946 31.6047 12.8708 31.6047C12.8708 31.6047 12.8708 31.6047 12.7471 31.6047C12.6233 31.6047 12.4995 31.496 12.252 31.496C12.1283 31.496 12.0045 31.3873 11.8808 31.3873H11.757C11.6332 31.3873 11.5095 31.2786 11.5095 31.2786C11.3857 31.2786 11.262 31.1699 11.1382 31.0612C9.90063 30.5177 8.78683 29.4307 7.67301 28.6698C6.93047 28.1263 6.18793 27.6915 5.32162 27.2567C3.71278 26.6045 2.22766 27.2567 1.11384 25.7349C0.618809 24.974 0.247559 24.1044 0.247559 23.126V22.5825C0.247559 20.5172 0.866339 18.8867 1.98016 17.9084C2.10391 17.9084 2.35142 17.9084 2.47518 17.9084C5.81663 18.3432 8.53929 20.1911 10.3957 22.5825C11.262 23.7783 12.0045 25.0826 12.6233 26.4957C12.8708 27.1479 13.1183 27.8002 13.3659 28.5611C13.3659 28.7785 13.4896 28.9959 13.4896 29.2133C13.6133 29.7568 13.6133 30.3003 14.1084 30.6264C14.4797 30.9525 15.0985 31.1699 15.5935 31.3873C17.2023 31.7134 19.0587 31.3873 20.42 30.6264C20.6675 30.5177 20.9151 30.409 21.1626 30.1916Z" fill="#474343"/>
<path d="M21.1625 30.1916C21.0388 30.5177 20.915 30.8438 20.7913 31.1699C19.925 32.4743 16.9548 32.3656 15.4697 32.2569C14.7271 32.2569 13.8609 32.0395 13.1183 31.9308C12.9945 31.9308 12.747 31.8221 12.6233 31.8221C12.6233 31.8221 12.6233 31.8221 12.4995 31.8221C12.3758 31.8221 12.252 31.7134 12.0045 31.7134C11.8807 31.7134 11.757 31.6047 11.6332 31.6047H11.5095C11.3857 31.6047 11.2619 31.496 11.2619 31.496C11.1382 31.496 11.0144 31.3873 10.8907 31.2786C9.65311 30.7351 8.53927 29.6481 7.42545 28.8872C6.68291 28.3437 5.94037 27.9089 5.07407 27.4741C3.46522 26.8219 1.98014 27.4741 0.866318 25.9522C0.371288 25.1913 0 24.3217 0 23.3434V22.7999C0 20.7346 0.61878 19.1041 1.7326 18.1258C1.85636 18.1258 2.1039 18.1258 2.22766 18.1258C5.56911 18.5606 8.29177 20.4085 10.1481 22.7999C11.0144 23.9956 11.757 25.3001 12.3758 26.7132C12.6233 27.3654 12.8708 28.0176 13.1183 28.7785C13.1183 28.9959 13.2421 29.2133 13.2421 29.4307C13.3658 29.9742 13.3658 30.5177 13.8609 30.8438C14.2321 31.1699 14.8509 31.3873 15.3459 31.6047C16.9548 31.9308 18.8112 31.6047 20.1725 30.8438C20.42 30.7351 20.7913 30.5177 21.1625 30.1916Z" fill="#BAD473"/>
<path d="M16.4598 20.5172C16.3361 20.2998 16.2123 20.0824 16.0885 19.865C15.0985 18.2345 13.6134 16.8214 11.757 15.8431C10.8907 15.4083 10.0244 15.1909 9.03439 15.4083C8.04433 15.7344 7.17801 16.1692 6.31171 16.7127C6.06419 16.9301 5.44539 17.1475 5.44539 17.4736C5.32163 17.9084 6.0642 17.9084 6.43547 17.9084C7.17802 18.0171 7.92055 18.3432 8.66309 18.6693C9.40564 18.8867 10.2719 19.2128 11.0145 19.5389C12.6233 20.2998 14.1084 21.2781 15.346 22.4738C15.9648 23.0174 16.4598 23.5609 16.9549 24.2131C17.4499 24.8653 17.8212 25.6262 18.1924 26.3871C18.3162 25.9523 18.3162 25.5175 18.1924 25.0827C17.8212 23.5608 17.3261 21.9303 16.4598 20.5172Z" fill="#474343"/>
<path d="M33.1669 17.5823C33.0431 17.691 33.0431 17.7997 32.9194 17.9084C32.5481 18.2345 32.0531 18.4519 31.6818 18.6693C30.568 19.2128 29.4542 19.5389 28.2166 19.3215C26.979 19.1041 25.7414 18.5606 24.5039 18.2345C23.1425 17.7997 21.6574 17.4736 20.2961 17.0388C17.5734 16.1692 14.8508 15.2996 12.1281 14.43C11.7568 14.3213 10.8905 13.8865 10.3955 13.9952C10.0242 14.1039 9.52921 14.43 9.03418 14.43C9.28169 13.4517 10.3955 12.3647 11.138 11.7125C11.3855 11.4951 11.7568 11.169 12.0044 10.9516C12.6231 10.4081 13.2419 9.97325 13.9845 9.64715C17.0784 8.01664 21.7812 7.90794 24.5039 9.21235C24.8751 9.42975 25.2464 9.64717 25.6177 9.97327C26.979 10.8429 28.2166 11.9299 29.4542 12.9082C30.1967 13.4517 30.9392 13.9952 31.6818 14.6474C31.9293 14.8648 32.3006 15.1909 32.5481 15.517C33.2907 15.8431 33.7857 16.7127 33.1669 17.5823Z" fill="#A86133"/>
<path d="M33.1669 17.5823C33.0431 17.691 33.0431 17.7997 32.9194 17.9084C32.5481 18.2345 32.0531 18.4519 31.6818 18.6693C30.568 19.2128 29.4542 19.5389 28.2166 19.3215C26.979 19.1041 21.7812 17.3649 20.2961 16.9301C17.5734 16.0605 14.8508 15.1909 12.1281 14.3213C11.7568 14.2126 10.8905 13.7778 10.3955 13.8865C10.0242 13.9952 9.52921 14.3213 9.03418 14.3213C9.28169 13.343 10.3955 12.256 11.138 11.6038C11.3855 11.3864 11.7568 11.0603 12.0044 10.8429C11.8806 11.3864 12.2519 11.9299 12.6231 12.3647C13.1182 12.7995 13.6132 13.1256 14.232 13.343C15.7171 14.1039 17.3259 14.8648 18.9348 15.6257C19.8011 15.9518 20.5436 16.3866 21.4099 16.604C22.1525 16.8214 22.895 16.9301 23.6376 17.2562C25.1226 17.7997 26.2365 18.0171 27.8453 17.9084C29.5779 17.7997 31.3105 17.0388 32.1768 15.7344C32.3006 15.517 32.4244 15.2996 32.5481 15.0822C33.2907 15.8431 33.7857 16.7127 33.1669 17.5823Z" fill="#874014"/>
<path d="M53.4633 13.0169C53.2158 11.169 50.9882 10.1907 49.1318 11.169L42.9439 14.3213C41.5826 14.9735 40.84 16.3866 41.0876 17.691L42.0776 24.8652C42.4489 27.474 42.3251 30.1916 41.5826 32.8004L39.9737 38.7789C39.6025 40.192 37.7461 40.9529 36.261 40.192L28.093 35.9527L26.6079 35.0831L28.093 37.0397L38.7362 42.6921C39.355 43.0182 40.2212 42.6921 40.345 42.0399C42.5726 40.8442 50.9882 36.6049 50.9882 36.6049C51.7307 33.67 52.597 30.6264 53.3395 27.6914C53.8346 26.0609 53.9583 24.3217 54.0821 22.6912C54.3296 19.4302 53.9583 16.2779 53.4633 13.0169Z" fill="#BAD473"/>
<path d="M55.4435 23.2347C55.5672 19.9737 55.1959 16.8214 54.7009 13.6691C54.4534 11.8212 52.2258 10.8429 50.3694 11.8212L44.1815 14.9735C42.8202 15.6257 42.0776 17.0388 42.3252 18.3432L43.3152 25.5175C43.6865 28.1263 43.5627 30.8438 42.8202 33.4526C42.8202 33.67 42.6964 33.7787 42.6964 33.9961C42.5727 34.4309 42.4489 34.8657 42.3252 35.3005C42.2014 35.9527 41.9539 36.4962 41.8301 37.1484C41.7064 37.8006 41.4588 38.4528 41.3351 39.2137C41.2113 39.8659 40.9638 40.5181 40.84 41.1703C40.84 41.3877 40.7163 41.4964 40.7163 41.7138C40.5925 42.0399 40.5925 42.4747 40.2213 42.8008C40.0975 42.9095 40.0975 42.9096 39.9738 43.0183C39.85 43.127 39.4787 43.2357 39.355 43.2357C39.6025 43.3444 39.9737 43.3443 40.2213 43.3443C40.7163 43.3443 41.2113 43.3444 41.7064 43.2357C41.9539 43.127 42.2014 43.0182 42.4489 42.9095C43.0677 42.5834 43.6865 42.2573 44.3053 41.8225C44.5528 41.6051 44.8003 41.3877 45.1716 41.1703C45.4191 40.9529 45.7904 40.8442 46.1616 40.7355C46.9042 40.4094 47.6467 39.9746 48.2655 39.6485C48.8843 39.3224 49.5031 38.9963 50.2456 38.6702C50.7407 38.4528 51.2357 38.1267 51.7307 37.9093C51.9782 37.8006 52.2257 37.6919 52.4732 37.5832C53.2158 34.6483 54.0821 31.6047 54.8247 28.6698C55.1959 26.4958 55.3197 24.8652 55.4435 23.2347Z" fill="#ABC95B"/>
<path d="M60.0226 52.6926C60.0226 48.8881 56.9287 44.3227 53.216 42.366C51.3596 41.3877 49.627 41.279 48.3894 41.9312L45.7905 43.127L55.5674 57.5841L57.9188 56.4971C59.2801 55.9536 60.0226 54.6492 60.0226 52.6926Z" fill="#413D3D"/>
<path d="M57.6709 53.7796C57.6709 57.5841 54.577 59.1059 50.8643 57.1493C47.1516 55.1927 44.0576 50.6273 44.0576 46.8227C44.0576 43.0182 47.1516 41.4964 50.8643 43.453C54.577 45.4096 57.6709 49.9751 57.6709 53.7796Z" fill="#262424"/>
<path d="M54.8245 53.1274C54.8245 53.7796 54.7007 55.1927 53.2156 55.1927C52.7206 55.1927 52.1018 54.9753 51.483 54.7579C48.8841 53.4535 46.7803 50.1925 46.7803 47.5837C46.7803 46.9315 46.904 45.5183 48.3891 45.5183C48.8841 45.5183 49.5029 45.7358 50.1217 45.9532C50.2455 45.9532 50.2455 46.0618 50.3692 46.0618C50.6167 46.1705 50.8642 46.3879 51.2355 46.6054C51.3593 46.7141 51.4831 46.8228 51.6068 46.9315C52.8444 48.0185 53.9582 49.5403 54.4532 51.0621C54.577 51.4969 54.7008 51.9317 54.8245 52.2578C54.8245 52.5839 54.8245 52.8013 54.8245 53.1274Z" fill="#EBC78C"/>
<path d="M54.082 54.6492C53.5869 54.6492 52.9681 54.4318 52.3494 54.2144C49.7505 52.91 47.6466 49.649 47.6466 47.0402C47.6466 46.6054 47.6466 45.9531 48.0178 45.5183C46.904 45.7357 46.7803 47.0402 46.7803 47.5837C46.7803 50.1925 48.8841 53.4535 51.483 54.7579C52.1018 55.084 52.7206 55.1927 53.2156 55.1927C53.8344 55.1927 54.0819 54.9753 54.3295 54.6492C54.3295 54.6492 54.2057 54.6492 54.082 54.6492Z" fill="#D7B680"/>
<path d="M54.8245 52.2578C54.7007 52.4752 54.5769 52.5839 54.3294 52.6926L53.5869 53.0187L49.2554 46.6054C49.2554 46.6054 49.3791 46.4967 49.5029 46.4967L49.9979 46.2793C50.1216 46.1706 50.2454 46.1706 50.3692 46.1706C50.6167 46.2793 50.8642 46.4967 51.2355 46.7141C51.3592 46.8228 51.483 46.9315 51.6068 47.0402C52.8443 48.1272 53.9581 49.649 54.4532 51.1708C54.5769 51.4969 54.7007 51.9317 54.8245 52.2578Z" fill="#E6D9D9"/>
<path d="M54.4533 51.2795C54.4533 52.1491 54.082 52.6926 53.587 53.0187C53.092 53.2361 52.2256 53.2361 51.4831 52.8013C49.7505 51.9317 48.3892 49.8664 48.3892 48.2358C48.3892 47.4749 48.6367 46.8227 49.1317 46.6053C49.1317 46.6053 49.2554 46.4967 49.3792 46.4967C49.8742 46.2793 50.4931 46.3879 51.1118 46.6053C51.2356 46.714 51.3593 46.8228 51.4831 46.9315C52.7207 48.0185 53.8345 49.5403 54.3295 51.0621C54.4533 51.1708 54.4533 51.2795 54.4533 51.2795Z" fill="#DBCECE"/>
<path d="M52.3495 50.3012C52.3495 49.7577 51.9782 49.1055 51.3594 48.8881C51.1119 48.7794 50.8644 48.7794 50.7406 48.7794L50.2456 48.9968L51.6069 50.9534L52.102 50.736C52.2257 50.736 52.3495 50.6273 52.3495 50.3012Z" fill="#A69C9C"/>
<path d="M51.8546 50.6273C51.8546 51.1708 51.4833 51.3882 50.8646 51.0621C50.3695 50.8447 49.8745 50.1925 49.8745 49.649C49.8745 49.1055 50.2458 48.8881 50.8646 49.2142C51.4833 49.4316 51.8546 50.0838 51.8546 50.6273Z" fill="#E6D9D9"/>
<path d="M61.7551 47.475C61.5076 48.6707 60.8888 49.8664 59.6513 50.5186C58.2899 51.3882 56.5573 51.6056 54.8247 51.4969C53.4634 51.3882 51.9783 51.0621 50.6169 50.5186C49.5031 49.9751 48.5131 48.9968 47.523 48.3446C46.9042 47.9098 46.1617 47.3662 45.4191 47.1488C43.9341 46.6053 42.5727 47.1489 41.7064 45.7358C41.2114 44.9748 40.9639 44.2139 40.9639 43.3443V42.8008C40.9639 40.8442 41.5826 39.4311 42.5727 38.6702C42.8202 38.4528 42.944 38.3441 43.1915 38.2354H43.3153C43.3153 38.2354 43.3153 38.2354 43.439 38.2354L49.1319 35.4092L49.9982 34.9744L50.9882 34.4309C52.1021 33.7787 53.7109 33.7787 55.4435 34.6483C58.5375 36.1701 60.5176 39.3224 61.3839 42.2573C61.7551 43.8878 62.1264 45.7358 61.7551 47.475Z" fill="#CEED82"/>
<path d="M62.0027 47.2576C61.8789 47.475 61.8789 47.8011 61.7551 48.0185C61.6314 48.3446 61.5076 48.562 61.3839 48.8881C61.0126 49.4316 60.5176 49.9751 59.8988 50.3012C58.5374 51.1708 56.8049 51.3882 55.0722 51.2795C53.7109 51.1708 52.2258 50.8447 50.8645 50.3012C49.7507 49.7577 48.7606 48.7794 47.7706 48.1272C47.1518 47.6924 46.4092 47.1489 45.6667 46.9315C44.1816 46.388 42.8202 46.9315 41.9539 45.5184C41.4589 44.7574 41.2114 43.9966 41.2114 43.127V42.5835C41.2114 40.6268 41.8302 39.2137 42.8203 38.4528C42.944 38.4528 43.0678 38.4528 43.1915 38.4528C46.1617 38.7789 48.6369 40.5181 50.2457 42.6922C51.112 43.7792 51.7308 44.9749 52.2258 46.2793C52.4734 46.9315 52.7209 47.475 52.8446 48.1272C52.8446 48.3446 52.9684 48.4533 52.9684 48.6707C53.0921 49.1055 53.0921 49.649 53.4634 49.9751C53.8347 50.3012 54.3297 50.5186 54.8248 50.6273C56.3098 50.9534 57.9187 50.6273 59.28 49.9751C59.8988 49.649 60.3938 49.3229 60.8889 48.7794C61.3839 48.4533 61.7552 47.8011 62.0027 47.2576C62.1264 47.2576 62.1264 47.2576 62.0027 47.2576Z" fill="#474343"/>
<path d="M61.7551 47.475C61.6314 47.6924 61.6314 48.0185 61.5076 48.2359C61.3839 48.562 61.2601 48.7794 61.1363 49.1055C60.7651 49.649 60.2701 50.1925 59.6513 50.5186C58.2899 51.3882 56.5573 51.6056 54.8247 51.4969C53.4634 51.3882 51.9783 51.0621 50.6169 50.5186C49.5031 49.9751 48.5131 48.9968 47.523 48.3446C46.9042 47.9098 46.1617 47.3663 45.4191 47.1489C43.9341 46.6054 42.5727 47.1489 41.7064 45.7358C41.2114 44.9749 40.9639 44.2139 40.9639 43.3443V42.8008C40.9639 40.8442 41.5826 39.4311 42.5727 38.6702C42.6965 38.6702 42.8202 38.6702 42.944 38.6702C45.9142 38.9963 48.3893 40.7355 49.9982 42.9095C50.8645 43.9965 51.4832 45.1923 51.9783 46.4967C52.2258 47.1489 52.4733 47.6924 52.5971 48.3446C52.5971 48.562 52.7208 48.6707 52.7208 48.8881C52.7208 49.3229 52.8446 49.8664 53.2159 50.1925C53.5871 50.5186 54.0822 50.736 54.5772 50.8447C56.0623 51.1708 57.6711 50.8447 59.0325 50.1925C59.6513 49.8664 60.1463 49.5403 60.6413 48.9968C61.1363 48.6707 61.5076 48.0185 61.7551 47.475Z" fill="#BAD473"/>
<path d="M54.4536 36.2788V36.3875C54.4536 36.6049 54.3299 36.8223 54.2061 37.1484C53.9586 37.5832 53.5873 37.8006 53.2161 37.9093C52.9685 38.018 52.721 38.018 52.4735 38.018C52.3497 38.018 52.3498 38.018 52.226 38.018C52.1023 38.018 52.1022 38.018 51.9785 38.018C51.3597 38.018 50.6172 37.8006 49.8746 37.4745C49.6271 37.3658 49.3796 37.3658 49.1321 37.2571C49.0083 37.2571 49.0083 37.2571 48.8845 37.1484C48.7608 37.1484 48.7608 37.1484 48.6371 37.0397C48.3895 36.931 48.142 36.931 48.0183 36.931C47.647 36.8223 47.2757 36.8223 46.9044 36.8223C46.7807 36.8223 46.7807 36.8223 46.6569 36.8223C46.5332 36.8223 46.4094 36.8223 46.2856 36.931C45.2956 37.2571 44.553 37.8006 43.563 38.1267C44.553 37.0397 45.7906 36.2788 46.6569 35.0831C47.2757 34.3222 47.7708 33.4526 48.0183 32.583C48.142 32.2569 48.142 32.0395 48.2658 31.7134C48.2658 31.6047 48.2658 31.6047 48.2658 31.496C48.7608 29.1046 48.5133 26.8219 48.2658 24.4304C48.0182 21.8216 47.7707 19.2128 47.5232 16.7127C47.5232 16.0605 47.2757 15.0822 47.647 14.5387C48.3895 13.4517 49.7509 14.8648 49.8746 15.6257C49.8746 15.8431 49.9984 16.0605 49.9984 16.2779C50.1221 17.3649 49.9984 18.5606 50.1221 19.6476C50.3696 23.7782 50.7409 28.6698 52.8448 32.4743C53.2161 33.1265 53.7111 33.7787 53.9586 34.4309V34.5396V34.6483C54.4536 35.1918 54.5774 35.7353 54.4536 36.2788Z" fill="#CEED82"/>
<path d="M53.8346 34.5396C53.9583 35.1918 53.8346 35.7353 53.2158 36.1701C52.7208 36.4962 52.102 36.7136 51.4832 36.6049C51.1119 36.4962 50.7407 36.3875 50.4932 36.1701C50.1219 35.9527 49.8744 35.6266 49.6268 35.4092C49.2556 34.8657 49.1318 34.2135 49.008 33.67C49.008 33.0178 49.0081 32.3656 49.2556 31.8221C49.3793 31.2786 49.6268 30.7351 49.7506 30.1916C49.9981 29.1046 49.8744 27.9089 49.7506 26.7132C49.5031 24.1044 49.1318 21.4955 48.7605 18.8867C48.7605 18.2345 48.6368 17.4736 49.008 16.9301C49.1318 16.7127 49.3793 16.604 49.6268 16.7127C49.7506 16.7127 49.8743 16.8214 49.9981 16.9301C50.6169 17.691 50.2456 18.9954 50.2456 19.8651C50.4931 23.9957 50.8644 28.8872 52.9683 32.6917C53.4633 33.1265 53.7108 33.7787 53.8346 34.5396Z" fill="#474343"/>
<path d="M48.0181 32.583C48.1418 32.2569 48.1418 32.0395 48.2656 31.7134C48.2656 32.0395 48.1418 32.3656 48.0181 32.583Z" fill="#75AFBC"/>
<path d="M54.4536 36.2788V36.3875C54.4536 36.6049 54.3299 36.8223 54.2061 37.1484C53.9586 37.5832 53.5873 37.8006 53.2161 37.9093C52.9685 38.018 52.721 38.018 52.4735 38.018C52.3497 38.018 52.3498 38.018 52.226 38.018H52.1022H51.9785C51.2359 38.018 50.6172 37.8006 49.8746 37.4745C49.6271 37.3658 49.3796 37.3658 49.1321 37.2571C49.0083 37.2571 49.0083 37.2571 48.8845 37.1484C48.7608 37.1484 48.7608 37.1484 48.6371 37.0397C48.3895 36.931 48.2658 36.931 48.0183 36.931C47.647 36.8223 47.2757 36.8223 46.9044 36.8223C46.7807 36.8223 46.7807 36.8223 46.6569 36.8223C46.5332 36.8223 46.4094 36.8223 46.2856 36.931C45.2956 37.2571 44.553 37.8006 43.563 38.1267C44.553 37.0397 45.7906 36.2788 46.6569 35.0831C47.2757 34.3222 47.7708 33.4526 48.0183 32.583V32.6917C47.7708 33.4526 47.5232 34.2135 47.7707 34.9744C48.0183 35.6266 48.3895 36.3875 49.0083 36.8223C49.3796 37.0397 49.8746 37.1484 50.3697 37.2571C50.8647 37.3658 51.3597 37.5832 51.9785 37.5832C52.5973 37.5832 53.0923 37.5832 53.5874 37.2571C54.3299 36.8223 54.4536 36.1701 54.4536 35.5179C54.4536 35.1918 54.3299 34.8657 54.3299 34.5396V34.6483C54.4536 35.1918 54.5774 35.7353 54.4536 36.2788Z" fill="#BAD473"/>
<path d="M60.8887 45.1923C60.8887 44.7575 60.7649 44.3226 60.7649 43.8878C60.6411 43.0182 60.5174 42.2573 60.2699 41.4964C59.8986 40.8442 59.5273 40.0833 59.0323 39.5398C58.2897 38.6702 57.4234 37.8006 56.4334 37.1484C55.5671 36.6049 53.9582 37.5832 54.2058 38.4528C54.3295 38.8876 54.9483 39.105 55.3196 39.3224C56.5571 40.0833 57.2997 41.1703 58.0422 42.2573C58.661 43.2356 59.156 44.214 59.5273 45.301C59.8986 46.388 59.7748 47.475 59.8986 48.562C60.0223 48.562 60.1461 48.4533 60.1461 48.3446C60.7649 47.3663 60.8887 46.2793 60.8887 45.1923Z" fill="#474343"/>
<path d="M52.3497 6.06006L48.7607 7.36448L46.038 15.2996C46.038 15.2996 46.038 15.1909 45.9143 15.0822C45.6667 14.8648 45.1717 14.6474 45.1717 14.5387C44.0579 13.6691 42.8203 12.4734 42.8203 11.0603C42.8203 10.4081 43.0678 9.64719 43.3153 8.99499C43.4391 8.56019 43.6866 8.23408 43.9341 7.90798C44.3054 7.36448 44.8004 6.92966 45.2955 6.49485C46.4093 5.62525 47.8944 5.19045 49.3794 5.40785C50.3695 5.51655 51.3596 5.62526 52.3497 6.06006C52.2259 6.06006 52.2259 6.06006 52.3497 6.06006Z" fill="#F2E4E4"/>
<path d="M45.7902 15.0822C45.5427 14.8648 45.0477 14.6474 45.0477 14.5387C43.9339 13.6691 42.6963 12.4734 42.6963 11.0603C42.6963 10.4081 42.9438 9.64719 43.1913 8.99499C43.3151 8.56019 43.5626 8.23408 43.8101 7.90798C43.6863 8.23408 43.5626 8.56019 43.4388 8.99499C43.3151 9.42979 43.1913 9.86457 43.1913 10.2994C43.3151 10.7342 43.6864 11.169 44.1814 11.2777C44.6764 11.3864 45.2952 11.2777 45.6665 10.9516C46.0377 12.256 45.6665 13.6691 45.7902 15.0822Z" fill="#CCC0C0"/>
<path d="M45.1714 13.2343C45.1714 10.7342 47.1515 7.79927 49.6267 6.49486C50.8642 5.84266 51.9781 5.84267 52.7206 6.16877L54.4532 6.92966L48.0178 16.3866L46.409 15.7344C45.6664 15.2996 45.1714 14.43 45.1714 13.2343Z" fill="#DBCECE"/>
<path d="M46.7803 13.8865C46.7803 16.3866 48.7604 17.3649 51.2355 16.0605C53.7107 14.8648 55.6908 11.8212 55.6908 9.32109C55.6908 6.82097 53.7107 5.84267 51.2355 7.14708C48.7604 8.45148 46.7803 11.3864 46.7803 13.8865Z" fill="#CCC0C0"/>
<path d="M49.2553 16.0605C48.1415 16.0605 47.3989 15.1909 47.3989 13.8865C47.3989 11.6038 49.2553 8.77757 51.4829 7.58186C52.1017 7.25576 52.7205 7.14706 53.2155 7.14706C54.3293 7.14706 55.0719 8.01667 55.0719 9.32108C55.0719 11.6038 53.2155 14.43 50.9879 15.6257C50.2453 15.9518 49.7503 16.0605 49.2553 16.0605Z" fill="#FEC245"/>
<path d="M53.092 7.47315C52.7207 7.47315 52.4733 7.58187 52.2257 7.69057C51.7307 7.90797 51.2357 8.23406 50.8644 8.56016C50.1219 9.10366 49.5031 9.75588 49.008 10.4081C48.513 11.0603 48.1417 11.8212 47.8942 12.4734C47.6467 13.1256 47.5229 13.9952 47.6467 14.7561C47.7705 14.9735 48.1417 15.8431 48.3892 15.1909C48.6368 14.6474 48.6368 14.1039 48.8843 13.5604C49.1318 12.6908 49.503 11.9299 49.9981 11.169C50.3694 10.5168 50.9882 9.86458 51.6069 9.42978C51.9782 9.21238 52.2257 8.77756 52.7208 8.56016C52.9683 8.34276 53.587 8.23408 53.7108 7.90798C53.7108 7.58188 53.4633 7.47315 53.092 7.47315Z" fill="#474343"/>
<path d="M45.0475 11.8212C45.0475 12.1473 44.9238 12.3647 44.6763 12.4734L38.4884 14.43L37.9934 13.6691L37.6221 13.0169L42.9437 9.75588C43.1912 9.64718 43.4387 9.64718 43.8099 9.86458C43.9337 9.97328 44.0575 9.9733 44.1812 10.082C44.6763 10.7342 45.0475 11.3864 45.0475 11.8212Z" fill="#CEED82"/>
<path d="M45.0478 11.8212C45.0478 12.1473 44.9241 12.3647 44.6766 12.4734L38.4887 14.43L37.9937 13.6691H38.1174C39.85 13.0169 41.9539 12.9082 43.439 11.9299C43.8102 11.7125 44.0578 11.3864 44.3053 11.0603C44.4291 10.7342 44.429 10.4081 44.1815 10.1907C44.6766 10.7342 45.0478 11.3864 45.0478 11.8212Z" fill="#BAD473"/>
<path d="M38.7361 14.2126C38.7361 14.5387 38.4886 14.7561 38.1173 14.5387C37.7461 14.3213 37.4985 13.8865 37.4985 13.5604C37.4985 13.2343 37.7461 13.0169 38.1173 13.2343C38.3648 13.4517 38.7361 13.8865 38.7361 14.2126Z" fill="#262424"/>
<path d="M39.2311 14.3213C39.2311 13.7778 38.7361 13.0169 38.1173 12.6908C37.8698 12.5821 37.6222 12.5821 37.3747 12.5821L37.0034 12.7995L38.4885 15.0822L38.8598 14.8648C39.1073 14.8648 39.2311 14.6474 39.2311 14.3213Z" fill="#F2E4E4"/>
<path d="M38.8599 14.5387C38.8599 15.0822 38.3649 15.4083 37.7461 15.0822C37.1273 14.7561 36.6323 14.1039 36.6323 13.4517C36.6323 12.9082 37.1273 12.5821 37.7461 12.9082C38.3649 13.2343 38.8599 13.8865 38.8599 14.5387Z" fill="#CCC0C0"/>
<path d="M38.6124 14.5387C38.6124 14.1039 38.2411 13.5604 37.7461 13.343C37.4986 13.2343 37.3748 13.2343 37.1273 13.343L30.9395 16.1692L32.177 17.9084L38.3649 15.0822C38.4887 14.8648 38.6124 14.7561 38.6124 14.5387Z" fill="#EBC78C"/>
<path d="M32.4245 17.2562C32.4245 17.691 32.0532 17.9084 31.5582 17.691C31.0631 17.4736 30.6919 16.9301 30.6919 16.4953C30.6919 16.0605 31.0631 15.8431 31.5582 16.0605C32.0532 16.2779 32.4245 16.8214 32.4245 17.2562Z" fill="#D7B680"/>
<path d="M28.3405 11.8212C27.7217 11.3864 27.2267 11.0603 26.8555 10.7342C24.5041 8.99495 22.0289 8.23405 18.935 8.56015C17.9449 8.66885 16.8311 8.99496 16.2123 9.75586C15.4698 10.8429 16.2123 12.0386 17.2023 12.7995C18.4399 13.7778 20.0488 14.5387 21.5339 15.1909C22.7714 15.7344 24.2565 16.0605 25.6179 16.0605C26.9792 16.1692 29.5781 16.2779 30.3207 15.0822C30.9394 13.8865 29.7019 12.6908 28.3405 11.8212Z" fill="#B86B38"/>
</svg>
