<svg width="200" height="200" viewBox="0 0 200 200" fill="none" xmlns="http://www.w3.org/2000/svg">
<g clip-path="url(#clip0_931_167)">
<rect width="200" height="200" rx="100" fill="url(#paint0_linear_931_167)"/>
<path d="M161.333 162C166.222 171.333 168.667 205.333 168.667 205.333H31.3335C31.3335 205.333 33.7782 171.333 38.6668 162C46.0002 148 100 130 100 130C100 130 154 148 161.333 162Z" fill="url(#paint1_linear_931_167)"/>
<mask id="mask0_931_167" style="mask-type:alpha" maskUnits="userSpaceOnUse" x="31" y="130" width="138" height="76">
<path d="M161.333 162C166.222 171.333 168.667 205.333 168.667 205.333H31.3335C31.3335 205.333 33.7782 171.333 38.6668 162C46.0002 148 100 130 100 130C100 130 154 148 161.333 162Z" fill="url(#paint2_linear_931_167)"/>
</mask>
<g mask="url(#mask0_931_167)">
<path d="M162.667 199.333C162.667 198.542 162.901 197.769 163.341 197.111C163.78 196.453 164.405 195.941 165.136 195.638C165.867 195.335 166.671 195.256 167.447 195.41C168.223 195.565 168.936 195.945 169.495 196.505C170.055 197.064 170.436 197.777 170.59 198.553C170.744 199.329 170.665 200.133 170.362 200.864C170.06 201.595 169.547 202.22 168.889 202.659C168.231 203.099 167.458 203.333 166.667 203.333C165.606 203.333 164.589 202.912 163.838 202.162C163.088 201.412 162.667 200.394 162.667 199.333V199.333ZM136 199.333C136 198.542 136.235 197.769 136.674 197.111C137.114 196.453 137.739 195.941 138.469 195.638C139.2 195.335 140.005 195.256 140.781 195.41C141.556 195.565 142.269 195.945 142.829 196.505C143.388 197.064 143.769 197.777 143.923 198.553C144.078 199.329 143.998 200.133 143.696 200.864C143.393 201.595 142.88 202.22 142.222 202.659C141.565 203.099 140.791 203.333 140 203.333C138.939 203.333 137.922 202.912 137.172 202.162C136.422 201.412 136 200.394 136 199.333ZM109.333 199.333C109.333 198.542 109.568 197.769 110.008 197.111C110.447 196.453 111.072 195.941 111.803 195.638C112.534 195.335 113.338 195.256 114.114 195.41C114.89 195.565 115.603 195.945 116.162 196.505C116.721 197.064 117.102 197.777 117.257 198.553C117.411 199.329 117.332 200.133 117.029 200.864C116.726 201.595 116.214 202.22 115.556 202.659C114.898 203.099 114.125 203.333 113.333 203.333C112.273 203.333 111.255 202.912 110.505 202.162C109.755 201.412 109.333 200.394 109.333 199.333ZM82.6668 199.333C82.6668 198.542 82.9014 197.769 83.341 197.111C83.7805 196.453 84.4052 195.941 85.1361 195.638C85.867 195.335 86.6713 195.256 87.4472 195.41C88.2231 195.565 88.9358 195.945 89.4953 196.505C90.0547 197.064 90.4356 197.777 90.59 198.553C90.7443 199.329 90.6651 200.133 90.3623 200.864C90.0596 201.595 89.5469 202.22 88.8891 202.659C88.2313 203.099 87.458 203.333 86.6668 203.333C85.606 203.333 84.5886 202.912 83.8384 202.162C83.0883 201.412 82.6668 200.394 82.6668 199.333ZM56.0002 199.333C56.0002 198.542 56.2348 197.769 56.6743 197.111C57.1138 196.453 57.7385 195.941 58.4694 195.638C59.2003 195.335 60.0046 195.256 60.7805 195.41C61.5565 195.565 62.2692 195.945 62.8286 196.505C63.388 197.064 63.769 197.777 63.9233 198.553C64.0776 199.329 63.9984 200.133 63.6957 200.864C63.3929 201.595 62.8802 202.22 62.2224 202.659C61.5646 203.099 60.7913 203.333 60.0002 203.333C58.9393 203.333 57.9219 202.912 57.1717 202.162C56.4216 201.412 56.0002 200.394 56.0002 199.333ZM29.3335 199.333C29.3335 198.542 29.5681 197.769 30.0076 197.111C30.4471 196.453 31.0719 195.941 31.8028 195.638C32.5337 195.335 33.3379 195.256 34.1139 195.41C34.8898 195.565 35.6025 195.945 36.1619 196.505C36.7213 197.064 37.1023 197.777 37.2566 198.553C37.411 199.329 37.3318 200.133 37.029 200.864C36.7263 201.595 36.2136 202.22 35.5558 202.659C34.898 203.099 34.1246 203.333 33.3335 203.333C32.2726 203.333 31.2552 202.912 30.5051 202.162C29.7549 201.412 29.3335 200.394 29.3335 199.333V199.333ZM149.333 186C149.333 185.209 149.568 184.436 150.008 183.778C150.447 183.12 151.072 182.607 151.803 182.304C152.534 182.002 153.338 181.923 154.114 182.077C154.89 182.231 155.603 182.612 156.162 183.172C156.721 183.731 157.102 184.444 157.257 185.22C157.411 185.996 157.332 186.8 157.029 187.531C156.726 188.262 156.214 188.886 155.556 189.326C154.898 189.765 154.125 190 153.333 190C152.273 190 151.255 189.579 150.505 188.828C149.755 188.078 149.333 187.061 149.333 186ZM122.667 186C122.667 185.209 122.901 184.436 123.341 183.778C123.78 183.12 124.405 182.607 125.136 182.304C125.867 182.002 126.671 181.923 127.447 182.077C128.223 182.231 128.936 182.612 129.495 183.172C130.055 183.731 130.436 184.444 130.59 185.22C130.744 185.996 130.665 186.8 130.362 187.531C130.06 188.262 129.547 188.886 128.889 189.326C128.231 189.765 127.458 190 126.667 190C125.606 190 124.589 189.579 123.838 188.828C123.088 188.078 122.667 187.061 122.667 186ZM96.0002 186C96.0002 185.209 96.2348 184.436 96.6743 183.778C97.1138 183.12 97.7385 182.607 98.4694 182.304C99.2003 182.002 100.005 181.923 100.781 182.077C101.556 182.231 102.269 182.612 102.829 183.172C103.388 183.731 103.769 184.444 103.923 185.22C104.078 185.996 103.998 186.8 103.696 187.531C103.393 188.262 102.88 188.886 102.222 189.326C101.565 189.765 100.791 190 100 190C98.9393 190 97.9219 189.579 97.1717 188.828C96.4216 188.078 96.0002 187.061 96.0002 186V186ZM69.3335 186C69.3335 185.209 69.5681 184.436 70.0076 183.778C70.4471 183.12 71.0719 182.607 71.8028 182.304C72.5337 182.002 73.3379 181.923 74.1139 182.077C74.8898 182.231 75.6025 182.612 76.1619 183.172C76.7213 183.731 77.1023 184.444 77.2566 185.22C77.411 185.996 77.3318 186.8 77.029 187.531C76.7263 188.262 76.2136 188.886 75.5558 189.326C74.898 189.765 74.1246 190 73.3335 190C72.2726 190 71.2552 189.579 70.5051 188.828C69.7549 188.078 69.3335 187.061 69.3335 186ZM42.6668 186C42.6668 185.209 42.9014 184.436 43.341 183.778C43.7805 183.12 44.4052 182.607 45.1361 182.304C45.867 182.002 46.6713 181.923 47.4472 182.077C48.2231 182.231 48.9358 182.612 49.4953 183.172C50.0547 183.731 50.4356 184.444 50.59 185.22C50.7443 185.996 50.6651 186.8 50.3623 187.531C50.0596 188.262 49.5469 188.886 48.8891 189.326C48.2313 189.765 47.458 190 46.6668 190C45.606 190 44.5885 189.579 43.8384 188.828C43.0883 188.078 42.6668 187.061 42.6668 186ZM162.667 172.667C162.667 171.876 162.901 171.102 163.341 170.444C163.78 169.787 164.405 169.274 165.136 168.971C165.867 168.668 166.671 168.589 167.447 168.744C168.223 168.898 168.936 169.279 169.495 169.838C170.055 170.398 170.436 171.11 170.59 171.886C170.744 172.662 170.665 173.466 170.362 174.197C170.06 174.928 169.547 175.553 168.889 175.993C168.231 176.432 167.458 176.667 166.667 176.667C165.606 176.667 164.589 176.245 163.838 175.495C163.088 174.745 162.667 173.728 162.667 172.667V172.667ZM136 172.667C136 171.876 136.235 171.102 136.674 170.444C137.114 169.787 137.739 169.274 138.469 168.971C139.2 168.668 140.005 168.589 140.781 168.744C141.556 168.898 142.269 169.279 142.829 169.838C143.388 170.398 143.769 171.11 143.923 171.886C144.078 172.662 143.998 173.466 143.696 174.197C143.393 174.928 142.88 175.553 142.222 175.993C141.565 176.432 140.791 176.667 140 176.667C138.939 176.667 137.922 176.245 137.172 175.495C136.422 174.745 136 173.728 136 172.667ZM109.333 172.667C109.333 171.876 109.568 171.102 110.008 170.444C110.447 169.787 111.072 169.274 111.803 168.971C112.534 168.668 113.338 168.589 114.114 168.744C114.89 168.898 115.603 169.279 116.162 169.838C116.721 170.398 117.102 171.11 117.257 171.886C117.411 172.662 117.332 173.466 117.029 174.197C116.726 174.928 116.214 175.553 115.556 175.993C114.898 176.432 114.125 176.667 113.333 176.667C112.273 176.667 111.255 176.245 110.505 175.495C109.755 174.745 109.333 173.728 109.333 172.667ZM82.6668 172.667C82.6668 171.876 82.9014 171.102 83.341 170.444C83.7805 169.787 84.4052 169.274 85.1361 168.971C85.867 168.668 86.6713 168.589 87.4472 168.744C88.2231 168.898 88.9358 169.279 89.4953 169.838C90.0547 170.398 90.4356 171.11 90.59 171.886C90.7443 172.662 90.6651 173.466 90.3623 174.197C90.0596 174.928 89.5469 175.553 88.8891 175.993C88.2313 176.432 87.458 176.667 86.6668 176.667C85.606 176.667 84.5886 176.245 83.8384 175.495C83.0883 174.745 82.6668 173.728 82.6668 172.667ZM56.0002 172.667C56.0002 171.876 56.2348 171.102 56.6743 170.444C57.1138 169.787 57.7385 169.274 58.4694 168.971C59.2003 168.668 60.0046 168.589 60.7805 168.744C61.5565 168.898 62.2692 169.279 62.8286 169.838C63.388 170.398 63.769 171.11 63.9233 171.886C64.0776 172.662 63.9984 173.466 63.6957 174.197C63.3929 174.928 62.8802 175.553 62.2224 175.993C61.5646 176.432 60.7913 176.667 60.0002 176.667C58.9393 176.667 57.9219 176.245 57.1717 175.495C56.4216 174.745 56.0002 173.728 56.0002 172.667ZM29.3335 172.667C29.3335 171.876 29.5681 171.102 30.0076 170.444C30.4471 169.787 31.0719 169.274 31.8028 168.971C32.5337 168.668 33.3379 168.589 34.1139 168.744C34.8898 168.898 35.6025 169.279 36.1619 169.838C36.7213 170.398 37.1023 171.11 37.2566 171.886C37.411 172.662 37.3318 173.466 37.029 174.197C36.7263 174.928 36.2136 175.553 35.5558 175.993C34.898 176.432 34.1246 176.667 33.3335 176.667C32.2726 176.667 31.2552 176.245 30.5051 175.495C29.7549 174.745 29.3335 173.728 29.3335 172.667V172.667ZM149.333 159.333C149.333 158.542 149.568 157.769 150.008 157.111C150.447 156.453 151.072 155.941 151.803 155.638C152.534 155.335 153.338 155.256 154.114 155.41C154.89 155.565 155.603 155.945 156.162 156.505C156.721 157.064 157.102 157.777 157.257 158.553C157.411 159.329 157.332 160.133 157.029 160.864C156.726 161.595 156.214 162.22 155.556 162.659C154.898 163.099 154.125 163.333 153.333 163.333C152.273 163.333 151.255 162.912 150.505 162.162C149.755 161.412 149.333 160.394 149.333 159.333ZM122.667 159.333C122.667 158.542 122.901 157.769 123.341 157.111C123.78 156.453 124.405 155.941 125.136 155.638C125.867 155.335 126.671 155.256 127.447 155.41C128.223 155.565 128.936 155.945 129.495 156.505C130.055 157.064 130.436 157.777 130.59 158.553C130.744 159.329 130.665 160.133 130.362 160.864C130.06 161.595 129.547 162.22 128.889 162.659C128.231 163.099 127.458 163.333 126.667 163.333C125.606 163.333 124.589 162.912 123.838 162.162C123.088 161.412 122.667 160.394 122.667 159.333ZM96.0002 159.333C96.0002 158.542 96.2348 157.769 96.6743 157.111C97.1138 156.453 97.7385 155.941 98.4694 155.638C99.2003 155.335 100.005 155.256 100.781 155.41C101.556 155.565 102.269 155.945 102.829 156.505C103.388 157.064 103.769 157.777 103.923 158.553C104.078 159.329 103.998 160.133 103.696 160.864C103.393 161.595 102.88 162.22 102.222 162.659C101.565 163.099 100.791 163.333 100 163.333C98.9393 163.333 97.9219 162.912 97.1717 162.162C96.4216 161.412 96.0002 160.394 96.0002 159.333V159.333ZM69.3335 159.333C69.3335 158.542 69.5681 157.769 70.0076 157.111C70.4471 156.453 71.0719 155.941 71.8028 155.638C72.5337 155.335 73.3379 155.256 74.1139 155.41C74.8898 155.565 75.6025 155.945 76.1619 156.505C76.7213 157.064 77.1023 157.777 77.2566 158.553C77.411 159.329 77.3318 160.133 77.029 160.864C76.7263 161.595 76.2136 162.22 75.5558 162.659C74.898 163.099 74.1246 163.333 73.3335 163.333C72.2726 163.333 71.2552 162.912 70.5051 162.162C69.7549 161.412 69.3335 160.394 69.3335 159.333ZM42.6668 159.333C42.6668 158.542 42.9014 157.769 43.341 157.111C43.7805 156.453 44.4052 155.941 45.1361 155.638C45.867 155.335 46.6713 155.256 47.4472 155.41C48.2231 155.565 48.9358 155.945 49.4953 156.505C50.0547 157.064 50.4356 157.777 50.59 158.553C50.7443 159.329 50.6651 160.133 50.3623 160.864C50.0596 161.595 49.5469 162.22 48.8891 162.659C48.2313 163.099 47.458 163.333 46.6668 163.333C45.606 163.333 44.5885 162.912 43.8384 162.162C43.0883 161.412 42.6668 160.394 42.6668 159.333ZM162.667 146C162.667 145.209 162.901 144.436 163.341 143.778C163.78 143.12 164.405 142.607 165.136 142.304C165.867 142.002 166.671 141.923 167.447 142.077C168.223 142.231 168.936 142.612 169.495 143.172C170.055 143.731 170.436 144.444 170.59 145.22C170.744 145.996 170.665 146.8 170.362 147.531C170.06 148.262 169.547 148.886 168.889 149.326C168.231 149.765 167.458 150 166.667 150C165.606 150 164.589 149.579 163.838 148.828C163.088 148.078 162.667 147.061 162.667 146V146ZM136 146C136 145.209 136.235 144.436 136.674 143.778C137.114 143.12 137.739 142.607 138.469 142.304C139.2 142.002 140.005 141.923 140.781 142.077C141.556 142.231 142.269 142.612 142.829 143.172C143.388 143.731 143.769 144.444 143.923 145.22C144.078 145.996 143.998 146.8 143.696 147.531C143.393 148.262 142.88 148.886 142.222 149.326C141.565 149.765 140.791 150 140 150C138.939 150 137.922 149.579 137.172 148.828C136.422 148.078 136 147.061 136 146V146ZM56.0002 146C56.0002 145.209 56.2348 144.436 56.6743 143.778C57.1138 143.12 57.7385 142.607 58.4694 142.304C59.2003 142.002 60.0046 141.923 60.7805 142.077C61.5565 142.231 62.2692 142.612 62.8286 143.172C63.388 143.731 63.769 144.444 63.9233 145.22C64.0776 145.996 63.9984 146.8 63.6957 147.531C63.3929 148.262 62.8802 148.886 62.2224 149.326C61.5646 149.765 60.7913 150 60.0002 150C58.9393 150 57.9219 149.579 57.1717 148.828C56.4216 148.078 56.0002 147.061 56.0002 146V146ZM29.3335 146C29.3335 145.209 29.5681 144.436 30.0076 143.778C30.4471 143.12 31.0719 142.607 31.8028 142.304C32.5337 142.002 33.3379 141.923 34.1139 142.077C34.8898 142.231 35.6025 142.612 36.1619 143.172C36.7213 143.731 37.1023 144.444 37.2566 145.22C37.411 145.996 37.3318 146.8 37.029 147.531C36.7263 148.262 36.2136 148.886 35.5558 149.326C34.898 149.765 34.1246 150 33.3335 150C32.2726 150 31.2552 149.579 30.5051 148.828C29.7549 148.078 29.3335 147.061 29.3335 146V146Z" fill="#FFA573"/>
</g>
<path d="M107.243 35.1333C104.576 23.4667 117.221 14.514 130.243 20.66C160.909 35.1333 142.667 55.3333 131.333 54C120 52.6667 109.909 46.8 107.243 35.1333Z" fill="url(#paint3_linear_931_167)"/>
<path opacity="0.6" d="M118.333 37C118.333 37 141 51.6667 146.667 43.6667C147.251 47.0073 144.563 56.4433 140.333 56.3333C127.682 56.004 118.333 37 118.333 37Z" fill="black"/>
<path d="M114.667 108.667C100.345 115.547 98.2553 115.179 66.6666 89.3332C19 50.3333 64 14.6666 112.333 33.6666C164.667 56.6666 147.134 93.0712 114.667 108.667Z" fill="url(#paint4_linear_931_167)"/>
<path d="M116.001 136C111.112 144 88.8895 144 84.0008 136V122.667C84.0008 122.667 81.8255 122.733 80.3341 122.667C64.7401 122 59.5295 96.9153 61.9768 71.8253C63.7688 53.4507 79.3341 78.6667 104.667 61C103.667 80.3333 112.001 78.3333 115.667 76C132.334 68.3333 132.473 99.7613 116.001 97.3333V136Z" fill="url(#paint5_linear_931_167)"/>
<path d="M84.0007 122.663C92.9973 121.995 106.413 112.597 106.413 112.597C106.413 112.597 99.9953 126.327 84.0014 128.661L84.0007 122.663Z" fill="#DB6F3D"/>
<path d="M116 134.307V130C117.223 130 120.724 132.888 122.524 135.333C129.642 145 121.747 153.667 115.308 153.667C107.184 153.667 101.8 146.879 100 143.613C98.2002 146.88 92.8162 153.667 84.6922 153.667C78.2536 153.667 70.3589 145 77.4762 135.333C79.2769 132.888 82.7776 130 84.0002 130V134.307C84.0002 139.405 95.1602 141.765 99.9782 141.983C104.539 141.765 116 139.405 116 134.307Z" fill="white"/>
</g>
<defs>
<linearGradient id="paint0_linear_931_167" x1="100" y1="200" x2="100" y2="0" gradientUnits="userSpaceOnUse">
<stop stop-color="#EBBF58"/>
<stop offset="1" stop-color="#FFD2C2"/>
</linearGradient>
<linearGradient id="paint1_linear_931_167" x1="153.148" y1="194.184" x2="100.368" y2="104.588" gradientUnits="userSpaceOnUse">
<stop stop-color="#E2834C"/>
<stop offset="1" stop-color="#DF6638"/>
</linearGradient>
<linearGradient id="paint2_linear_931_167" x1="153.148" y1="194.184" x2="100.368" y2="104.588" gradientUnits="userSpaceOnUse">
<stop stop-color="#E2834C"/>
<stop offset="1" stop-color="#DF6638"/>
</linearGradient>
<linearGradient id="paint3_linear_931_167" x1="127.014" y1="18.6635" x2="127.014" y2="54.0627" gradientUnits="userSpaceOnUse">
<stop stop-color="#1D0024"/>
<stop offset="1" stop-color="#100014"/>
</linearGradient>
<linearGradient id="paint4_linear_931_167" x1="95.9627" y1="28.4048" x2="95.9627" y2="112.456" gradientUnits="userSpaceOnUse">
<stop stop-color="#1D0024"/>
<stop offset="1" stop-color="#100014"/>
</linearGradient>
<linearGradient id="paint5_linear_931_167" x1="94.8314" y1="61" x2="94.8314" y2="142" gradientUnits="userSpaceOnUse">
<stop stop-color="#E6864E"/>
<stop offset="1" stop-color="#EB965E"/>
</linearGradient>
<clipPath id="clip0_931_167">
<rect width="200" height="200" rx="100" fill="white"/>
</clipPath>
</defs>
</svg>
