<svg width="200" height="200" viewBox="0 0 200 200" fill="none" xmlns="http://www.w3.org/2000/svg">
<g clip-path="url(#clip0_931_124)">
<rect width="200" height="200" rx="100" fill="url(#paint0_linear_931_124)"/>
<path d="M148.333 106.333C153.741 88.3727 157.075 57.6667 134.333 36.6667C116.953 20.6173 69.9999 19 53.6666 54C50.9399 59.8427 54.6666 69 61.9999 68.6667C64.8819 68.5333 66.6666 77.6667 68.3333 83.3333C65.9999 106.333 45.2119 106.758 34.6666 124.333C21.6666 146 37.6666 178 75.9999 178C114.333 178 136.308 146.27 148.333 106.333Z" fill="url(#paint1_linear_931_124)"/>
<path d="M161.333 158.95C166.222 168.366 168.667 202.667 168.667 202.667H31.3335C31.3335 202.667 33.7782 168.366 38.6668 158.95C46.0002 144.826 100 126.667 100 126.667C100 126.667 154 144.826 161.333 158.95Z" fill="url(#paint2_linear_931_124)"/>
<path d="M116 134.667C116 134.667 107.489 139.333 99.66 139.333C91.8307 139.333 84 134.667 84 134.667V120C82.3157 120.266 80.6094 120.368 78.9054 120.303C62.9134 120.301 56.8834 97.0074 60 68.6667C62 68.6667 66.6667 68.6667 73.3334 59.3334C71.6667 72.3334 91 70.3334 98.3334 60C94.6667 72.3334 104.333 80.6667 112.667 75.6667C129.007 65.862 132.681 95.7507 116 96V134.667Z" fill="url(#paint3_linear_931_124)"/>
<g style="mix-blend-mode:multiply" opacity="0.782">
<path d="M84 120C92.2699 118.477 100.183 115.425 107.333 111C107.333 111 99 125.333 84 125.333V120Z" fill="#FFD7B8"/>
</g>
<path d="M100.022 138.65C104.84 138.432 116 136.072 116 130.973V126.667C117.222 126.667 120.723 129.555 122.524 132C129.641 141.667 121.746 150.333 115.308 150.333C107.184 150.333 101.8 143.545 99.9997 140.28C98.1997 143.547 92.8157 150.333 84.6917 150.333C78.2531 150.333 70.3584 141.667 77.4757 132C79.2764 129.555 82.7771 126.667 83.9997 126.667V130.973C83.9997 136.072 95.4611 138.432 100.022 138.65Z" fill="white"/>
<path d="M97.3335 184C97.3335 183.473 97.4899 182.957 97.7829 182.519C98.0759 182.08 98.4924 181.738 98.9797 181.536C99.4669 181.335 100.003 181.282 100.52 181.385C101.038 181.488 101.513 181.742 101.886 182.114C102.259 182.487 102.513 182.963 102.616 183.48C102.718 183.997 102.666 184.533 102.464 185.021C102.262 185.508 101.92 185.924 101.482 186.217C101.043 186.51 100.528 186.667 100 186.667C99.2929 186.667 98.6146 186.386 98.1145 185.886C97.6144 185.386 97.3335 184.707 97.3335 184ZM97.3335 170.667C97.3335 170.139 97.4899 169.624 97.7829 169.185C98.0759 168.747 98.4924 168.405 98.9797 168.203C99.4669 168.001 100.003 167.948 100.52 168.051C101.038 168.154 101.513 168.408 101.886 168.781C102.259 169.154 102.513 169.629 102.616 170.147C102.718 170.664 102.666 171.2 102.464 171.687C102.262 172.175 101.92 172.591 101.482 172.884C101.043 173.177 100.528 173.333 100 173.333C99.2929 173.333 98.6146 173.052 98.1145 172.552C97.6144 172.052 97.3335 171.374 97.3335 170.667ZM97.3335 157.333C97.3335 156.806 97.4899 156.29 97.7829 155.852C98.0759 155.413 98.4924 155.072 98.9797 154.87C99.4669 154.668 100.003 154.615 100.52 154.718C101.038 154.821 101.513 155.075 101.886 155.448C102.259 155.821 102.513 156.296 102.616 156.813C102.718 157.33 102.666 157.867 102.464 158.354C102.262 158.841 101.92 159.258 101.482 159.551C101.043 159.844 100.528 160 100 160C99.2929 160 98.6146 159.719 98.1145 159.219C97.6144 158.719 97.3335 158.041 97.3335 157.333V157.333Z" fill="url(#paint4_linear_931_124)"/>
</g>
<defs>
<linearGradient id="paint0_linear_931_124" x1="100" y1="200" x2="100" y2="0" gradientUnits="userSpaceOnUse">
<stop stop-color="#EBBF58"/>
<stop offset="1" stop-color="#FFD2C2"/>
</linearGradient>
<linearGradient id="paint1_linear_931_124" x1="91.2547" y1="25.7256" x2="91.2547" y2="178" gradientUnits="userSpaceOnUse">
<stop stop-color="#130027"/>
<stop offset="1" stop-color="#130017"/>
</linearGradient>
<linearGradient id="paint2_linear_931_124" x1="100" y1="202.667" x2="100" y2="126.667" gradientUnits="userSpaceOnUse">
<stop stop-color="#E6864E"/>
<stop offset="1" stop-color="#E67240"/>
</linearGradient>
<linearGradient id="paint3_linear_931_124" x1="93.0311" y1="59.3334" x2="93.0311" y2="139.333" gradientUnits="userSpaceOnUse">
<stop stop-color="#FFE0CC"/>
<stop offset="1" stop-color="#FFEADB"/>
</linearGradient>
<linearGradient id="paint4_linear_931_124" x1="100" y1="154.667" x2="100" y2="186.667" gradientUnits="userSpaceOnUse">
<stop stop-color="#130027"/>
<stop offset="1" stop-color="#130017"/>
</linearGradient>
<clipPath id="clip0_931_124">
<rect width="200" height="200" rx="100" fill="white"/>
</clipPath>
</defs>
</svg>
