<svg width="200" height="200" viewBox="0 0 200 200" fill="none" xmlns="http://www.w3.org/2000/svg">
<g clip-path="url(#clip0_931_123)">
<rect width="200" height="200" rx="100" fill="url(#paint0_linear_931_123)"/>
<path d="M121.333 117.333V132C121.333 133.452 99.9998 137.848 99.9998 137.848C99.9998 137.848 78.6665 134.071 78.6665 132C78.6665 128.08 78.7465 108.4 78.6665 90.1253C69.1118 77.7407 69.1118 70 76.6665 62C84.2212 54 138 50 138 50C138 50 142.034 88.8067 142.666 99.3333C142.92 103.567 145.666 117.333 135 117.333H121.333Z" fill="url(#paint1_linear_931_123)"/>
<path d="M121.333 116.082V124.107C107.045 121.562 98.8225 116.193 96.6665 108C102.889 112.222 110.889 114.889 120.667 116C120.889 116.025 121.111 116.053 121.333 116.082Z" fill="#DE6530"/>
<path d="M170 162.205C174.231 170.808 177.564 185.031 180 204.872H20C22.4364 185.028 25.7698 170.806 30 162.205C34.216 153.633 73.3333 137.133 73.3333 137.133L126.667 137.128C126.667 137.128 165.792 153.65 170 162.205Z" fill="url(#paint2_linear_931_123)"/>
<path d="M104.667 141.333L108 202.667H92L95.3333 141.333C95.3333 141.333 98.4447 138 100 138C101.555 138 104.667 141.333 104.667 141.333Z" fill="url(#paint3_linear_931_123)"/>
<path d="M105.341 153.745L94.9839 147.761L95.3332 141.333C97.4074 139.111 98.963 138 99.9999 138C101.037 138 102.592 139.111 104.667 141.333L105.341 153.745Z" fill="#D24B24"/>
<path d="M99.9998 137.994L93.3332 150L72.6665 137.333L78.6665 128.667L99.9998 136.547L121.333 128.667L127.333 137.333L106.667 150L99.9998 137.994Z" fill="white"/>
<path d="M87.3468 70.1373C85.2268 68.3166 82.6508 67.0906 79.0095 68.9826C70.3768 73.4646 76.1062 90.7566 85.7668 90.4193C89.1002 90.3033 87.5722 96.946 78.6668 101.333C78.6668 94.3333 68.0002 77 67.0668 61.2186C56.3335 57.222 59.0002 41.2306 66.3688 41.2306C65.1928 26.5699 88.6668 18.9979 97.7562 27.4106C107 16.3313 130.333 21.9979 131.742 31.6099C147.787 23.0453 158.333 47.6646 143.31 57.222C137.128 61.1553 122.667 62.652 101.791 62.652C91.7742 62.652 97.5348 86.0986 100.667 93.6666C104.667 103.333 127 104.667 134 103.667C139.467 102.886 142.333 100.667 142.667 99.3333C147.667 112.667 141.333 120.667 131.333 120.667C114.333 120.667 97.3335 115.667 94.6668 103.333C92.5442 93.518 92.6608 77.6773 87.3468 70.1373Z" fill="url(#paint4_linear_931_123)"/>
</g>
<defs>
<linearGradient id="paint0_linear_931_123" x1="100" y1="200" x2="100" y2="0" gradientUnits="userSpaceOnUse">
<stop stop-color="#EBBF58"/>
<stop offset="1" stop-color="#FFD2C2"/>
</linearGradient>
<linearGradient id="paint1_linear_931_123" x1="107.198" y1="50" x2="107.198" y2="137.848" gradientUnits="userSpaceOnUse">
<stop stop-color="#E6864E"/>
<stop offset="1" stop-color="#EB965E"/>
</linearGradient>
<linearGradient id="paint2_linear_931_123" x1="100" y1="137.128" x2="100" y2="204.872" gradientUnits="userSpaceOnUse">
<stop stop-color="#130027"/>
<stop offset="1" stop-color="#130017"/>
</linearGradient>
<linearGradient id="paint3_linear_931_123" x1="100" y1="202.667" x2="100" y2="138" gradientUnits="userSpaceOnUse">
<stop stop-color="#E6864E"/>
<stop offset="1" stop-color="#E67240"/>
</linearGradient>
<linearGradient id="paint4_linear_931_123" x1="105.232" y1="21.3296" x2="105.232" y2="120.667" gradientUnits="userSpaceOnUse">
<stop stop-color="#130027"/>
<stop offset="1" stop-color="#130017"/>
</linearGradient>
<clipPath id="clip0_931_123">
<rect width="200" height="200" rx="100" fill="white"/>
</clipPath>
</defs>
</svg>
